<?xml version="1.0" encoding="UTF-8"?>
<svg version="1.1" width="1000" height="2000" viewBox="0 0 1000 2000" xmlns="http://www.w3.org/2000/svg" shape-rendering="crispEdges">
<rect x="390" y="950" width="120" height="10" fill="#A02D27" />
<rect x="350" y="960" width="210" height="10" fill="#A02D27" />
<rect x="330" y="970" width="70" height="10" fill="#A02D27" />
<rect x="500" y="970" width="80" height="10" fill="#A02D27" />
<rect x="320" y="980" width="40" height="10" fill="#A02D27" />
<rect x="550" y="980" width="50" height="10" fill="#A02D27" />
<rect x="320" y="990" width="20" height="10" fill="#A02D27" />
<rect x="570" y="990" width="40" height="10" fill="#A02D27" />
<rect x="590" y="1000" width="30" height="10" fill="#A02D27" />
<rect x="600" y="1010" width="30" height="10" fill="#A02D27" />
<rect x="610" y="1020" width="30" height="10" fill="#A02D27" />
<rect x="620" y="1030" width="30" height="10" fill="#A02D27" />
<rect x="630" y="1040" width="20" height="10" fill="#A02D27" />
<rect x="630" y="1050" width="10" height="10" fill="#7A1E2C" />
<rect x="640" y="1050" width="20" height="20" fill="#A02D27" />
<rect x="640" y="1070" width="10" height="10" fill="#7A1E2C" />
<rect x="650" y="1070" width="10" height="10" fill="#A02D27" />
<rect x="640" y="1080" width="20" height="10" fill="#7A1E2C" />
<rect x="640" y="1090" width="10" height="10" fill="#4A0F2B" />
<rect x="650" y="1090" width="10" height="10" fill="#7A1E2C" />
<rect x="660" y="1090" width="10" height="10" fill="#4A0F2B" />
<rect x="650" y="1100" width="20" height="20" fill="#7A1E2C" />
<rect x="650" y="1120" width="10" height="10" fill="#4A0F2B" />
<rect x="660" y="1120" width="10" height="10" fill="#7A1E2C" />
<rect x="650" y="1130" width="10" height="10" fill="#7A1E2C" />
<rect x="660" y="1130" width="10" height="10" fill="#4A0F2B" />
<rect x="640" y="1140" width="10" height="10" fill="#7A1E2C" />
<rect x="650" y="1140" width="20" height="10" fill="#4A0F2B" />
<rect x="640" y="1150" width="20" height="20" fill="#4A0F2B" />
<rect x="630" y="1170" width="30" height="10" fill="#4A0F2B" />
<rect x="630" y="1180" width="20" height="10" fill="#4A0F2B" />
<rect x="620" y="1190" width="30" height="10" fill="#4A0F2B" />
<rect x="620" y="1200" width="20" height="10" fill="#4A0F2B" />
<rect x="610" y="1210" width="30" height="10" fill="#4A0F2B" />
<rect x="610" y="1220" width="20" height="20" fill="#4A0F2B" />
<rect x="600" y="1240" width="30" height="10" fill="#4A0F2B" />
<rect x="600" y="1250" width="20" height="20" fill="#4A0F2B" />
<rect x="810" y="1250" width="10" height="10" fill="#7A1E2C" />
<rect x="800" y="1260" width="10" height="10" fill="#7A1E2C" />
<rect x="810" y="1260" width="10" height="10" fill="#A02D27" />
<rect x="820" y="1260" width="10" height="10" fill="#4A0F2B" />
<rect x="600" y="1270" width="10" height="10" fill="#7A1E2C" />
<rect x="610" y="1270" width="10" height="10" fill="#A02D27" />
<rect x="790" y="1270" width="10" height="10" fill="#4A0F2B" />
<rect x="800" y="1270" width="30" height="10" fill="#A02D27" />
<rect x="830" y="1270" width="10" height="10" fill="#4A0F2B" />
<rect x="600" y="1280" width="20" height="50" fill="#A02D27" />
<rect x="780" y="1280" width="10" height="10" fill="#4A0F2B" />
<rect x="790" y="1280" width="50" height="20" fill="#A02D27" />
<rect x="840" y="1280" width="10" height="30" fill="#4A0F2B" />
<rect x="780" y="1290" width="10" height="10" fill="#7A1E2C" />
<rect x="780" y="1300" width="10" height="10" fill="#4A0F2B" />
<rect x="790" y="1300" width="10" height="10" fill="#7A1E2C" />
<rect x="800" y="1300" width="10" height="10" fill="#A02D27" />
<rect x="810" y="1300" width="10" height="20" fill="#4A0F2B" />
<rect x="820" y="1300" width="10" height="10" fill="#A02D27" />
<rect x="830" y="1300" width="10" height="10" fill="#7A1E2C" />
<rect x="790" y="1310" width="10" height="10" fill="#4A0F2B" />
<rect x="800" y="1310" width="10" height="10" fill="#7A1E2C" />
<rect x="820" y="1310" width="10" height="10" fill="#7A1E2C" />
<rect x="830" y="1310" width="10" height="10" fill="#4A0F2B" />
<rect x="620" y="1320" width="10" height="10" fill="#7A1E2C" />
<rect x="800" y="1320" width="20" height="10" fill="#4A0F2B" />
<rect x="610" y="1330" width="20" height="20" fill="#A02D27" />
<rect x="790" y="1330" width="10" height="10" fill="#4A0F2B" />
<rect x="800" y="1330" width="10" height="10" fill="#7A1E2C" />
<rect x="810" y="1330" width="10" height="10" fill="#4A0F2B" />
<rect x="790" y="1340" width="20" height="10" fill="#7A1E2C" />
<rect x="610" y="1350" width="30" height="10" fill="#A02D27" />
<rect x="780" y="1350" width="10" height="10" fill="#7A1E2C" />
<rect x="790" y="1350" width="10" height="10" fill="#A02D27" />
<rect x="800" y="1350" width="10" height="10" fill="#4A0F2B" />
<rect x="620" y="1360" width="30" height="10" fill="#A02D27" />
<rect x="770" y="1360" width="10" height="10" fill="#7A1E2C" />
<rect x="780" y="1360" width="10" height="10" fill="#A02D27" />
<rect x="790" y="1360" width="10" height="10" fill="#7A1E2C" />
<rect x="630" y="1370" width="30" height="10" fill="#A02D27" />
<rect x="750" y="1370" width="10" height="10" fill="#4A0F2B" />
<rect x="760" y="1370" width="10" height="10" fill="#7A1E2C" />
<rect x="770" y="1370" width="10" height="10" fill="#A02D27" />
<rect x="780" y="1370" width="10" height="10" fill="#4A0F2B" />
<rect x="640" y="1380" width="10" height="10" fill="#7A1E2C" />
<rect x="650" y="1380" width="20" height="10" fill="#A02D27" />
<rect x="670" y="1380" width="10" height="10" fill="#7A1E2C" />
<rect x="740" y="1380" width="30" height="10" fill="#7A1E2C" />
<rect x="770" y="1380" width="10" height="10" fill="#4A0F2B" />
<rect x="650" y="1390" width="10" height="10" fill="#7A1E2C" />
<rect x="660" y="1390" width="60" height="10" fill="#A02D27" />
<rect x="720" y="1390" width="40" height="10" fill="#7A1E2C" />
<rect x="660" y="1400" width="20" height="10" fill="#4A0F2B" />
<rect x="680" y="1400" width="50" height="10" fill="#7A1E2C" />
<rect x="730" y="1400" width="20" height="10" fill="#4A0F2B" />
</svg>
