<?xml version="1.0" encoding="UTF-8"?>
<svg version="1.1" width="1000" height="2000" viewBox="0 0 1000 2000" xmlns="http://www.w3.org/2000/svg" shape-rendering="crispEdges">
<rect x="390" y="210" width="70" height="10" fill="#010929" />
<rect x="360" y="220" width="30" height="10" fill="#010929" />
<rect x="390" y="220" width="70" height="10" fill="#263253" />
<rect x="460" y="220" width="20" height="10" fill="#010929" />
<rect x="340" y="230" width="20" height="10" fill="#010929" />
<rect x="360" y="230" width="120" height="10" fill="#263253" />
<rect x="480" y="230" width="20" height="10" fill="#010929" />
<rect x="330" y="240" width="10" height="10" fill="#010929" />
<rect x="340" y="240" width="160" height="10" fill="#263253" />
<rect x="500" y="240" width="10" height="10" fill="#010929" />
<rect x="320" y="250" width="10" height="10" fill="#010929" />
<rect x="330" y="250" width="180" height="10" fill="#263253" />
<rect x="510" y="250" width="10" height="10" fill="#010929" />
<rect x="310" y="260" width="10" height="10" fill="#010929" />
<rect x="320" y="260" width="60" height="10" fill="#263253" />
<rect x="380" y="260" width="20" height="10" fill="#010929" />
<rect x="400" y="260" width="120" height="10" fill="#263253" />
<rect x="520" y="260" width="10" height="10" fill="#010929" />
<rect x="300" y="270" width="10" height="10" fill="#010929" />
<rect x="310" y="270" width="20" height="10" fill="#6069A1" />
<rect x="330" y="270" width="70" height="10" fill="#263253" />
<rect x="400" y="270" width="10" height="10" fill="#010929" />
<rect x="410" y="270" width="90" height="10" fill="#263253" />
<rect x="500" y="270" width="60" height="10" fill="#010929" />
<rect x="290" y="280" width="10" height="10" fill="#010929" />
<rect x="300" y="280" width="70" height="10" fill="#6069A1" />
<rect x="370" y="280" width="40" height="10" fill="#263253" />
<rect x="410" y="280" width="10" height="40" fill="#010929" />
<rect x="420" y="280" width="60" height="10" fill="#263253" />
<rect x="480" y="280" width="20" height="10" fill="#010929" />
<rect x="500" y="280" width="60" height="10" fill="#263253" />
<rect x="560" y="280" width="10" height="10" fill="#010929" />
<rect x="280" y="290" width="10" height="20" fill="#010929" />
<rect x="290" y="290" width="30" height="10" fill="#263253" />
<rect x="320" y="290" width="90" height="10" fill="#6069A1" />
<rect x="420" y="290" width="50" height="10" fill="#6069A1" />
<rect x="470" y="290" width="10" height="10" fill="#010929" />
<rect x="480" y="290" width="90" height="10" fill="#263253" />
<rect x="570" y="290" width="10" height="10" fill="#010929" />
<rect x="290" y="300" width="60" height="10" fill="#263253" />
<rect x="350" y="300" width="60" height="10" fill="#6069A1" />
<rect x="420" y="300" width="60" height="10" fill="#6069A1" />
<rect x="480" y="300" width="100" height="10" fill="#263253" />
<rect x="580" y="300" width="10" height="20" fill="#010929" />
<rect x="270" y="310" width="10" height="20" fill="#010929" />
<rect x="280" y="310" width="130" height="10" fill="#263253" />
<rect x="420" y="310" width="40" height="10" fill="#263253" />
<rect x="460" y="310" width="30" height="10" fill="#6069A1" />
<rect x="490" y="310" width="90" height="10" fill="#263253" />
<rect x="280" y="320" width="120" height="10" fill="#263253" />
<rect x="400" y="320" width="20" height="10" fill="#010929" />
<rect x="420" y="320" width="50" height="10" fill="#263253" />
<rect x="470" y="320" width="30" height="10" fill="#6069A1" />
<rect x="500" y="320" width="90" height="10" fill="#263253" />
<rect x="590" y="320" width="10" height="80" fill="#010929" />
<rect x="260" y="330" width="10" height="30" fill="#010929" />
<rect x="270" y="330" width="120" height="10" fill="#263253" />
<rect x="390" y="330" width="10" height="10" fill="#010929" />
<rect x="400" y="330" width="20" height="10" fill="#D9A686" />
<rect x="420" y="330" width="20" height="10" fill="#010929" />
<rect x="440" y="330" width="40" height="10" fill="#263253" />
<rect x="480" y="330" width="30" height="10" fill="#6069A1" />
<rect x="510" y="330" width="80" height="10" fill="#263253" />
<rect x="270" y="340" width="110" height="10" fill="#263253" />
<rect x="380" y="340" width="10" height="10" fill="#010929" />
<rect x="390" y="340" width="50" height="10" fill="#D9A686" />
<rect x="440" y="340" width="20" height="10" fill="#010929" />
<rect x="460" y="340" width="30" height="10" fill="#263253" />
<rect x="490" y="340" width="100" height="10" fill="#6069A1" />
<rect x="270" y="350" width="90" height="10" fill="#263253" />
<rect x="360" y="350" width="20" height="10" fill="#010929" />
<rect x="380" y="350" width="70" height="10" fill="#D9A686" />
<rect x="450" y="350" width="10" height="40" fill="#010929" />
<rect x="460" y="350" width="40" height="10" fill="#263253" />
<rect x="500" y="350" width="90" height="10" fill="#6069A1" />
<rect x="250" y="360" width="10" height="60" fill="#010929" />
<rect x="260" y="360" width="80" height="10" fill="#263253" />
<rect x="340" y="360" width="20" height="10" fill="#010929" />
<rect x="360" y="360" width="90" height="10" fill="#D9A686" />
<rect x="460" y="360" width="60" height="10" fill="#263253" />
<rect x="520" y="360" width="70" height="10" fill="#6069A1" />
<rect x="260" y="370" width="70" height="10" fill="#263253" />
<rect x="330" y="370" width="10" height="10" fill="#010929" />
<rect x="340" y="370" width="110" height="10" fill="#D9A686" />
<rect x="460" y="370" width="130" height="20" fill="#263253" />
<rect x="260" y="380" width="60" height="30" fill="#263253" />
<rect x="320" y="380" width="10" height="30" fill="#010929" />
<rect x="330" y="380" width="120" height="10" fill="#D9A686" />
<rect x="330" y="390" width="130" height="20" fill="#D9A686" />
<rect x="460" y="390" width="10" height="20" fill="#010929" />
<rect x="470" y="390" width="120" height="20" fill="#263253" />
<rect x="590" y="400" width="30" height="10" fill="#010929" />
<rect x="260" y="410" width="50" height="10" fill="#263253" />
<rect x="310" y="410" width="10" height="20" fill="#010929" />
<rect x="320" y="410" width="150" height="20" fill="#D9A686" />
<rect x="470" y="410" width="10" height="20" fill="#010929" />
<rect x="480" y="410" width="130" height="10" fill="#263253" />
<rect x="610" y="410" width="20" height="10" fill="#010929" />
<rect x="260" y="420" width="10" height="30" fill="#010929" />
<rect x="270" y="420" width="40" height="10" fill="#263253" />
<rect x="480" y="420" width="140" height="10" fill="#263253" />
<rect x="620" y="420" width="20" height="10" fill="#010929" />
<rect x="270" y="430" width="30" height="10" fill="#263253" />
<rect x="300" y="430" width="10" height="10" fill="#010929" />
<rect x="310" y="430" width="170" height="10" fill="#D9A686" />
<rect x="480" y="430" width="10" height="10" fill="#010929" />
<rect x="490" y="430" width="140" height="10" fill="#263253" />
<rect x="630" y="430" width="20" height="10" fill="#010929" />
<rect x="270" y="440" width="20" height="10" fill="#263253" />
<rect x="290" y="440" width="10" height="10" fill="#010929" />
<rect x="300" y="440" width="190" height="10" fill="#D9A686" />
<rect x="490" y="440" width="10" height="10" fill="#010929" />
<rect x="500" y="440" width="140" height="10" fill="#263253" />
<rect x="640" y="440" width="10" height="10" fill="#010929" />
<rect x="250" y="450" width="10" height="30" fill="#010929" />
<rect x="260" y="450" width="30" height="10" fill="#263253" />
<rect x="290" y="450" width="20" height="10" fill="#010929" />
<rect x="310" y="450" width="170" height="10" fill="#D9A686" />
<rect x="480" y="450" width="10" height="10" fill="#010929" />
<rect x="490" y="450" width="150" height="10" fill="#263253" />
<rect x="640" y="450" width="20" height="10" fill="#010929" />
<rect x="260" y="460" width="20" height="10" fill="#263253" />
<rect x="280" y="460" width="30" height="10" fill="#010929" />
<rect x="310" y="460" width="30" height="10" fill="#D9A686" />
<rect x="460" y="460" width="10" height="10" fill="#D9A686" />
<rect x="470" y="460" width="20" height="10" fill="#010929" />
<rect x="490" y="460" width="160" height="10" fill="#263253" />
<rect x="650" y="460" width="10" height="20" fill="#010929" />
<rect x="260" y="470" width="10" height="10" fill="#263253" />
<rect x="270" y="470" width="40" height="10" fill="#010929" />
<rect x="310" y="470" width="20" height="10" fill="#D9A686" />
<rect x="450" y="470" width="20" height="10" fill="#D9A686" />
<rect x="470" y="470" width="10" height="20" fill="#010929" />
<rect x="480" y="470" width="170" height="20" fill="#263253" />
<rect x="250" y="480" width="20" height="10" fill="#010929" />
<rect x="280" y="480" width="40" height="10" fill="#010929" />
<rect x="320" y="480" width="10" height="10" fill="#D9A686" />
<rect x="460" y="480" width="10" height="10" fill="#D9A686" />
<rect x="650" y="480" width="20" height="10" fill="#010929" />
<rect x="290" y="490" width="40" height="10" fill="#010929" />
<rect x="460" y="490" width="20" height="10" fill="#010929" />
<rect x="480" y="490" width="180" height="10" fill="#263253" />
<rect x="660" y="490" width="10" height="60" fill="#010929" />
<rect x="300" y="500" width="40" height="10" fill="#010929" />
<rect x="460" y="500" width="10" height="40" fill="#010929" />
<rect x="470" y="500" width="190" height="40" fill="#263253" />
<rect x="300" y="510" width="50" height="10" fill="#010929" />
<rect x="300" y="520" width="70" height="10" fill="#010929" />
<rect x="300" y="530" width="80" height="10" fill="#010929" />
<rect x="300" y="540" width="40" height="10" fill="#010929" />
<rect x="460" y="540" width="20" height="10" fill="#010929" />
<rect x="480" y="540" width="180" height="10" fill="#263253" />
<rect x="470" y="550" width="10" height="20" fill="#010929" />
<rect x="480" y="550" width="170" height="20" fill="#263253" />
<rect x="650" y="550" width="20" height="10" fill="#010929" />
<rect x="650" y="560" width="10" height="30" fill="#010929" />
<rect x="470" y="570" width="20" height="10" fill="#010929" />
<rect x="490" y="570" width="110" height="20" fill="#263253" />
<rect x="600" y="570" width="10" height="20" fill="#010929" />
<rect x="610" y="570" width="40" height="20" fill="#263253" />
<rect x="480" y="580" width="10" height="10" fill="#010929" />
<rect x="480" y="590" width="20" height="10" fill="#010929" />
<rect x="500" y="590" width="90" height="10" fill="#263253" />
<rect x="590" y="590" width="10" height="10" fill="#010929" />
<rect x="600" y="590" width="10" height="10" fill="#263253" />
<rect x="610" y="590" width="10" height="20" fill="#010929" />
<rect x="620" y="590" width="30" height="10" fill="#263253" />
<rect x="650" y="590" width="20" height="10" fill="#010929" />
<rect x="490" y="600" width="20" height="10" fill="#010929" />
<rect x="510" y="600" width="70" height="10" fill="#263253" />
<rect x="580" y="600" width="10" height="10" fill="#010929" />
<rect x="590" y="600" width="20" height="10" fill="#263253" />
<rect x="620" y="600" width="40" height="10" fill="#263253" />
<rect x="660" y="600" width="20" height="10" fill="#010929" />
<rect x="500" y="610" width="30" height="10" fill="#010929" />
<rect x="530" y="610" width="40" height="10" fill="#263253" />
<rect x="570" y="610" width="10" height="10" fill="#010929" />
<rect x="580" y="610" width="40" height="10" fill="#263253" />
<rect x="620" y="610" width="10" height="10" fill="#010929" />
<rect x="630" y="610" width="40" height="10" fill="#263253" />
<rect x="670" y="610" width="20" height="10" fill="#010929" />
<rect x="520" y="620" width="50" height="10" fill="#010929" />
<rect x="570" y="620" width="60" height="10" fill="#263253" />
<rect x="630" y="620" width="10" height="10" fill="#010929" />
<rect x="640" y="620" width="40" height="10" fill="#263253" />
<rect x="680" y="620" width="10" height="10" fill="#010929" />
<rect x="540" y="630" width="20" height="10" fill="#010929" />
<rect x="560" y="630" width="80" height="10" fill="#263253" />
<rect x="640" y="630" width="30" height="10" fill="#010929" />
<rect x="670" y="630" width="10" height="10" fill="#263253" />
<rect x="680" y="630" width="20" height="10" fill="#010929" />
<rect x="540" y="640" width="10" height="10" fill="#010929" />
<rect x="550" y="640" width="140" height="20" fill="#263253" />
<rect x="690" y="640" width="10" height="10" fill="#010929" />
<rect x="530" y="650" width="20" height="10" fill="#010929" />
<rect x="690" y="650" width="20" height="10" fill="#010929" />
<rect x="520" y="660" width="20" height="10" fill="#010929" />
<rect x="540" y="660" width="160" height="10" fill="#263253" />
<rect x="700" y="660" width="10" height="50" fill="#010929" />
<rect x="510" y="670" width="20" height="10" fill="#010929" />
<rect x="530" y="670" width="80" height="10" fill="#263253" />
<rect x="610" y="670" width="10" height="10" fill="#010929" />
<rect x="620" y="670" width="80" height="10" fill="#263253" />
<rect x="500" y="680" width="20" height="10" fill="#010929" />
<rect x="520" y="680" width="70" height="10" fill="#263253" />
<rect x="590" y="680" width="20" height="10" fill="#010929" />
<rect x="610" y="680" width="90" height="10" fill="#263253" />
<rect x="500" y="690" width="90" height="10" fill="#010929" />
<rect x="590" y="690" width="110" height="10" fill="#263253" />
<rect x="550" y="700" width="20" height="10" fill="#010929" />
<rect x="570" y="700" width="130" height="10" fill="#263253" />
<rect x="550" y="710" width="10" height="20" fill="#010929" />
<rect x="560" y="710" width="130" height="30" fill="#263253" />
<rect x="690" y="710" width="20" height="10" fill="#010929" />
<rect x="690" y="720" width="10" height="70" fill="#010929" />
<rect x="540" y="730" width="20" height="10" fill="#010929" />
<rect x="540" y="740" width="10" height="50" fill="#010929" />
<rect x="550" y="740" width="140" height="10" fill="#263253" />
<rect x="550" y="750" width="90" height="20" fill="#263253" />
<rect x="640" y="750" width="10" height="20" fill="#010929" />
<rect x="650" y="750" width="40" height="20" fill="#263253" />
<rect x="550" y="770" width="100" height="20" fill="#263253" />
<rect x="650" y="770" width="10" height="20" fill="#010929" />
<rect x="660" y="770" width="30" height="20" fill="#263253" />
<rect x="540" y="790" width="20" height="10" fill="#010929" />
<rect x="560" y="790" width="100" height="10" fill="#263253" />
<rect x="660" y="790" width="10" height="10" fill="#010929" />
<rect x="670" y="790" width="30" height="10" fill="#263253" />
<rect x="700" y="790" width="10" height="10" fill="#010929" />
<rect x="550" y="800" width="20" height="20" fill="#010929" />
<rect x="570" y="800" width="100" height="10" fill="#263253" />
<rect x="670" y="800" width="110" height="10" fill="#010929" />
<rect x="570" y="810" width="190" height="10" fill="#263253" />
<rect x="760" y="810" width="20" height="10" fill="#010929" />
<rect x="550" y="820" width="30" height="10" fill="#010929" />
<rect x="580" y="820" width="170" height="10" fill="#263253" />
<rect x="750" y="820" width="20" height="10" fill="#010929" />
<rect x="550" y="830" width="40" height="10" fill="#010929" />
<rect x="590" y="830" width="150" height="10" fill="#263253" />
<rect x="740" y="830" width="20" height="10" fill="#010929" />
<rect x="560" y="840" width="40" height="20" fill="#010929" />
<rect x="600" y="840" width="130" height="10" fill="#263253" />
<rect x="730" y="840" width="20" height="10" fill="#010929" />
<rect x="600" y="850" width="120" height="10" fill="#263253" />
<rect x="720" y="850" width="20" height="10" fill="#010929" />
<rect x="570" y="860" width="40" height="40" fill="#010929" />
<rect x="610" y="860" width="110" height="20" fill="#263253" />
<rect x="720" y="860" width="10" height="10" fill="#010929" />
<rect x="720" y="870" width="20" height="10" fill="#010929" />
<rect x="610" y="880" width="120" height="10" fill="#263253" />
<rect x="730" y="880" width="20" height="10" fill="#010929" />
<rect x="610" y="890" width="130" height="10" fill="#263253" />
<rect x="740" y="890" width="20" height="10" fill="#010929" />
<rect x="570" y="900" width="50" height="30" fill="#010929" />
<rect x="620" y="900" width="50" height="10" fill="#263253" />
<rect x="670" y="900" width="10" height="10" fill="#010929" />
<rect x="680" y="900" width="70" height="10" fill="#263253" />
<rect x="750" y="900" width="20" height="10" fill="#010929" />
<rect x="620" y="910" width="60" height="10" fill="#263253" />
<rect x="680" y="910" width="10" height="10" fill="#010929" />
<rect x="690" y="910" width="70" height="10" fill="#263253" />
<rect x="760" y="910" width="10" height="10" fill="#010929" />
<rect x="620" y="920" width="70" height="10" fill="#263253" />
<rect x="690" y="920" width="10" height="10" fill="#010929" />
<rect x="700" y="920" width="60" height="10" fill="#263253" />
<rect x="760" y="920" width="20" height="10" fill="#010929" />
<rect x="560" y="930" width="60" height="30" fill="#010929" />
<rect x="620" y="930" width="80" height="10" fill="#263253" />
<rect x="700" y="930" width="10" height="10" fill="#010929" />
<rect x="710" y="930" width="60" height="10" fill="#263253" />
<rect x="770" y="930" width="10" height="90" fill="#010929" />
<rect x="620" y="940" width="90" height="10" fill="#263253" />
<rect x="710" y="940" width="10" height="10" fill="#010929" />
<rect x="720" y="940" width="50" height="10" fill="#263253" />
<rect x="620" y="950" width="100" height="10" fill="#263253" />
<rect x="720" y="950" width="10" height="10" fill="#010929" />
<rect x="730" y="950" width="40" height="10" fill="#263253" />
<rect x="550" y="960" width="70" height="30" fill="#010929" />
<rect x="620" y="960" width="110" height="20" fill="#263253" />
<rect x="730" y="960" width="10" height="20" fill="#010929" />
<rect x="740" y="960" width="30" height="20" fill="#263253" />
<rect x="620" y="980" width="120" height="10" fill="#263253" />
<rect x="740" y="980" width="10" height="30" fill="#010929" />
<rect x="750" y="980" width="20" height="30" fill="#263253" />
<rect x="540" y="990" width="70" height="20" fill="#010929" />
<rect x="610" y="990" width="130" height="20" fill="#263253" />
<rect x="530" y="1010" width="70" height="10" fill="#010929" />
<rect x="600" y="1010" width="150" height="10" fill="#263253" />
<rect x="750" y="1010" width="10" height="10" fill="#010929" />
<rect x="760" y="1010" width="10" height="10" fill="#263253" />
<rect x="520" y="1020" width="70" height="10" fill="#010929" />
<rect x="590" y="1020" width="160" height="10" fill="#263253" />
<rect x="750" y="1020" width="30" height="10" fill="#010929" />
<rect x="440" y="1030" width="130" height="10" fill="#010929" />
<rect x="570" y="1030" width="180" height="10" fill="#263253" />
<rect x="750" y="1030" width="20" height="20" fill="#010929" />
<rect x="440" y="1040" width="20" height="20" fill="#010929" />
<rect x="460" y="1040" width="290" height="10" fill="#263253" />
<rect x="460" y="1050" width="170" height="10" fill="#263253" />
<rect x="630" y="1050" width="10" height="20" fill="#010929" />
<rect x="640" y="1050" width="110" height="20" fill="#263253" />
<rect x="750" y="1050" width="10" height="30" fill="#010929" />
<rect x="450" y="1060" width="20" height="10" fill="#010929" />
<rect x="470" y="1060" width="160" height="10" fill="#263253" />
<rect x="460" y="1070" width="20" height="10" fill="#010929" />
<rect x="480" y="1070" width="140" height="10" fill="#263253" />
<rect x="620" y="1070" width="10" height="10" fill="#010929" />
<rect x="630" y="1070" width="120" height="10" fill="#263253" />
<rect x="470" y="1080" width="20" height="10" fill="#010929" />
<rect x="490" y="1080" width="110" height="10" fill="#263253" />
<rect x="600" y="1080" width="20" height="10" fill="#010929" />
<rect x="620" y="1080" width="130" height="10" fill="#263253" />
<rect x="750" y="1080" width="20" height="10" fill="#010929" />
<rect x="480" y="1090" width="30" height="10" fill="#010929" />
<rect x="510" y="1090" width="50" height="10" fill="#263253" />
<rect x="560" y="1090" width="40" height="10" fill="#010929" />
<rect x="600" y="1090" width="160" height="10" fill="#263253" />
<rect x="760" y="1090" width="10" height="10" fill="#010929" />
<rect x="500" y="1100" width="60" height="10" fill="#010929" />
<rect x="560" y="1100" width="200" height="10" fill="#263253" />
<rect x="760" y="1100" width="20" height="10" fill="#010929" />
<rect x="510" y="1110" width="10" height="20" fill="#010929" />
<rect x="520" y="1110" width="250" height="10" fill="#263253" />
<rect x="770" y="1110" width="10" height="110" fill="#010929" />
<rect x="520" y="1120" width="80" height="10" fill="#263253" />
<rect x="600" y="1120" width="20" height="10" fill="#010929" />
<rect x="620" y="1120" width="150" height="10" fill="#263253" />
<rect x="500" y="1130" width="20" height="10" fill="#010929" />
<rect x="520" y="1130" width="70" height="10" fill="#263253" />
<rect x="590" y="1130" width="10" height="10" fill="#010929" />
<rect x="600" y="1130" width="170" height="10" fill="#263253" />
<rect x="500" y="1140" width="10" height="10" fill="#010929" />
<rect x="510" y="1140" width="70" height="20" fill="#263253" />
<rect x="580" y="1140" width="10" height="30" fill="#010929" />
<rect x="590" y="1140" width="180" height="30" fill="#263253" />
<rect x="490" y="1150" width="20" height="10" fill="#010929" />
<rect x="490" y="1160" width="10" height="10" fill="#010929" />
<rect x="500" y="1160" width="80" height="10" fill="#263253" />
<rect x="480" y="1170" width="20" height="10" fill="#010929" />
<rect x="500" y="1170" width="70" height="10" fill="#263253" />
<rect x="570" y="1170" width="10" height="30" fill="#010929" />
<rect x="580" y="1170" width="190" height="30" fill="#263253" />
<rect x="480" y="1180" width="10" height="70" fill="#010929" />
<rect x="490" y="1180" width="80" height="20" fill="#263253" />
<rect x="490" y="1200" width="60" height="10" fill="#263253" />
<rect x="550" y="1200" width="20" height="10" fill="#010929" />
<rect x="570" y="1200" width="70" height="20" fill="#263253" />
<rect x="640" y="1200" width="10" height="20" fill="#010929" />
<rect x="650" y="1200" width="120" height="20" fill="#263253" />
<rect x="490" y="1210" width="50" height="10" fill="#263253" />
<rect x="540" y="1210" width="30" height="10" fill="#010929" />
<rect x="490" y="1220" width="40" height="20" fill="#263253" />
<rect x="530" y="1220" width="20" height="10" fill="#010929" />
<rect x="560" y="1220" width="10" height="30" fill="#010929" />
<rect x="570" y="1220" width="60" height="40" fill="#263253" />
<rect x="630" y="1220" width="10" height="40" fill="#010929" />
<rect x="640" y="1220" width="120" height="10" fill="#263253" />
<rect x="760" y="1220" width="20" height="10" fill="#010929" />
<rect x="530" y="1230" width="10" height="10" fill="#010929" />
<rect x="640" y="1230" width="110" height="20" fill="#263253" />
<rect x="750" y="1230" width="20" height="10" fill="#010929" />
<rect x="490" y="1240" width="30" height="10" fill="#263253" />
<rect x="520" y="1240" width="20" height="10" fill="#010929" />
<rect x="750" y="1240" width="10" height="10" fill="#010929" />
<rect x="480" y="1250" width="20" height="10" fill="#010929" />
<rect x="500" y="1250" width="20" height="10" fill="#263253" />
<rect x="520" y="1250" width="10" height="10" fill="#010929" />
<rect x="550" y="1250" width="20" height="10" fill="#010929" />
<rect x="640" y="1250" width="40" height="10" fill="#263253" />
<rect x="680" y="1250" width="10" height="50" fill="#010929" />
<rect x="690" y="1250" width="50" height="20" fill="#263253" />
<rect x="740" y="1250" width="20" height="10" fill="#010929" />
<rect x="490" y="1260" width="10" height="10" fill="#010929" />
<rect x="500" y="1260" width="10" height="10" fill="#263253" />
<rect x="510" y="1260" width="20" height="10" fill="#010929" />
<rect x="550" y="1260" width="10" height="20" fill="#010929" />
<rect x="560" y="1260" width="60" height="20" fill="#263253" />
<rect x="620" y="1260" width="10" height="20" fill="#010929" />
<rect x="630" y="1260" width="50" height="40" fill="#263253" />
<rect x="740" y="1260" width="10" height="10" fill="#010929" />
<rect x="490" y="1270" width="30" height="10" fill="#010929" />
<rect x="690" y="1270" width="40" height="30" fill="#263253" />
<rect x="730" y="1270" width="20" height="10" fill="#010929" />
<rect x="500" y="1280" width="20" height="10" fill="#010929" />
<rect x="540" y="1280" width="20" height="10" fill="#010929" />
<rect x="560" y="1280" width="50" height="10" fill="#263253" />
<rect x="610" y="1280" width="20" height="10" fill="#010929" />
<rect x="730" y="1280" width="10" height="30" fill="#010929" />
<rect x="540" y="1290" width="10" height="10" fill="#010929" />
<rect x="550" y="1290" width="50" height="10" fill="#263253" />
<rect x="600" y="1290" width="30" height="10" fill="#010929" />
<rect x="530" y="1300" width="20" height="10" fill="#010929" />
<rect x="550" y="1300" width="40" height="10" fill="#263253" />
<rect x="590" y="1300" width="20" height="10" fill="#010929" />
<rect x="620" y="1300" width="10" height="20" fill="#010929" />
<rect x="630" y="1300" width="40" height="30" fill="#263253" />
<rect x="670" y="1300" width="10" height="20" fill="#010929" />
<rect x="680" y="1300" width="50" height="20" fill="#263253" />
<rect x="530" y="1310" width="10" height="10" fill="#010929" />
<rect x="540" y="1310" width="40" height="10" fill="#263253" />
<rect x="580" y="1310" width="20" height="10" fill="#010929" />
<rect x="730" y="1310" width="20" height="10" fill="#010929" />
<rect x="520" y="1320" width="20" height="10" fill="#010929" />
<rect x="540" y="1320" width="30" height="10" fill="#263253" />
<rect x="570" y="1320" width="20" height="10" fill="#010929" />
<rect x="610" y="1320" width="20" height="10" fill="#010929" />
<rect x="670" y="1320" width="20" height="10" fill="#010929" />
<rect x="690" y="1320" width="50" height="10" fill="#263253" />
<rect x="740" y="1320" width="10" height="10" fill="#010929" />
<rect x="520" y="1330" width="10" height="10" fill="#010929" />
<rect x="530" y="1330" width="30" height="10" fill="#263253" />
<rect x="560" y="1330" width="20" height="10" fill="#010929" />
<rect x="610" y="1330" width="10" height="10" fill="#010929" />
<rect x="620" y="1330" width="40" height="10" fill="#263253" />
<rect x="660" y="1330" width="40" height="10" fill="#010929" />
<rect x="700" y="1330" width="40" height="10" fill="#263253" />
<rect x="740" y="1330" width="20" height="10" fill="#010929" />
<rect x="510" y="1340" width="20" height="10" fill="#010929" />
<rect x="530" y="1340" width="10" height="10" fill="#263253" />
<rect x="540" y="1340" width="30" height="10" fill="#010929" />
<rect x="600" y="1340" width="20" height="10" fill="#010929" />
<rect x="620" y="1340" width="30" height="10" fill="#263253" />
<rect x="650" y="1340" width="20" height="10" fill="#010929" />
<rect x="690" y="1340" width="20" height="10" fill="#010929" />
<rect x="710" y="1340" width="40" height="10" fill="#263253" />
<rect x="750" y="1340" width="10" height="20" fill="#010929" />
<rect x="510" y="1350" width="40" height="10" fill="#010929" />
<rect x="590" y="1350" width="20" height="10" fill="#010929" />
<rect x="610" y="1350" width="30" height="10" fill="#263253" />
<rect x="640" y="1350" width="20" height="10" fill="#010929" />
<rect x="700" y="1350" width="20" height="10" fill="#010929" />
<rect x="720" y="1350" width="30" height="10" fill="#263253" />
<rect x="580" y="1360" width="20" height="10" fill="#010929" />
<rect x="600" y="1360" width="20" height="10" fill="#263253" />
<rect x="620" y="1360" width="30" height="10" fill="#010929" />
<rect x="710" y="1360" width="30" height="10" fill="#010929" />
<rect x="740" y="1360" width="10" height="10" fill="#263253" />
<rect x="750" y="1360" width="20" height="10" fill="#010929" />
<rect x="580" y="1370" width="50" height="10" fill="#010929" />
<rect x="730" y="1370" width="40" height="10" fill="#010929" />
</svg>
