<?xml version="1.0" encoding="UTF-8"?>
<svg version="1.1" width="1000" height="2000" viewBox="0 0 1000 2000" xmlns="http://www.w3.org/2000/svg" shape-rendering="crispEdges">
<rect x="390" y="220" width="70" height="10" fill="#010929" />
<rect x="360" y="230" width="30" height="10" fill="#010929" />
<rect x="390" y="230" width="70" height="10" fill="#263253" />
<rect x="460" y="230" width="20" height="10" fill="#010929" />
<rect x="340" y="240" width="20" height="10" fill="#010929" />
<rect x="360" y="240" width="120" height="10" fill="#263253" />
<rect x="480" y="240" width="20" height="10" fill="#010929" />
<rect x="330" y="250" width="10" height="10" fill="#010929" />
<rect x="340" y="250" width="160" height="10" fill="#263253" />
<rect x="500" y="250" width="10" height="10" fill="#010929" />
<rect x="320" y="260" width="10" height="10" fill="#010929" />
<rect x="330" y="260" width="180" height="10" fill="#263253" />
<rect x="510" y="260" width="10" height="10" fill="#010929" />
<rect x="310" y="270" width="10" height="10" fill="#010929" />
<rect x="320" y="270" width="60" height="10" fill="#263253" />
<rect x="380" y="270" width="20" height="10" fill="#010929" />
<rect x="400" y="270" width="120" height="10" fill="#263253" />
<rect x="520" y="270" width="10" height="10" fill="#010929" />
<rect x="300" y="280" width="10" height="10" fill="#010929" />
<rect x="310" y="280" width="20" height="10" fill="#6069A1" />
<rect x="330" y="280" width="70" height="10" fill="#263253" />
<rect x="400" y="280" width="10" height="10" fill="#010929" />
<rect x="410" y="280" width="90" height="10" fill="#263253" />
<rect x="500" y="280" width="60" height="10" fill="#010929" />
<rect x="290" y="290" width="10" height="10" fill="#010929" />
<rect x="300" y="290" width="70" height="10" fill="#6069A1" />
<rect x="370" y="290" width="40" height="10" fill="#263253" />
<rect x="410" y="290" width="10" height="40" fill="#010929" />
<rect x="420" y="290" width="60" height="10" fill="#263253" />
<rect x="480" y="290" width="20" height="10" fill="#010929" />
<rect x="500" y="290" width="60" height="10" fill="#263253" />
<rect x="560" y="290" width="10" height="10" fill="#010929" />
<rect x="280" y="300" width="10" height="20" fill="#010929" />
<rect x="290" y="300" width="30" height="10" fill="#263253" />
<rect x="320" y="300" width="90" height="10" fill="#6069A1" />
<rect x="420" y="300" width="50" height="10" fill="#6069A1" />
<rect x="470" y="300" width="10" height="10" fill="#010929" />
<rect x="480" y="300" width="90" height="10" fill="#263253" />
<rect x="570" y="300" width="10" height="10" fill="#010929" />
<rect x="290" y="310" width="60" height="10" fill="#263253" />
<rect x="350" y="310" width="60" height="10" fill="#6069A1" />
<rect x="420" y="310" width="60" height="10" fill="#6069A1" />
<rect x="480" y="310" width="100" height="10" fill="#263253" />
<rect x="580" y="310" width="10" height="20" fill="#010929" />
<rect x="270" y="320" width="10" height="20" fill="#010929" />
<rect x="280" y="320" width="130" height="10" fill="#263253" />
<rect x="420" y="320" width="40" height="10" fill="#263253" />
<rect x="460" y="320" width="30" height="10" fill="#6069A1" />
<rect x="490" y="320" width="90" height="10" fill="#263253" />
<rect x="280" y="330" width="120" height="10" fill="#263253" />
<rect x="400" y="330" width="20" height="10" fill="#010929" />
<rect x="420" y="330" width="50" height="10" fill="#263253" />
<rect x="470" y="330" width="30" height="10" fill="#6069A1" />
<rect x="500" y="330" width="90" height="10" fill="#263253" />
<rect x="590" y="330" width="10" height="80" fill="#010929" />
<rect x="260" y="340" width="10" height="30" fill="#010929" />
<rect x="270" y="340" width="120" height="10" fill="#263253" />
<rect x="390" y="340" width="10" height="10" fill="#010929" />
<rect x="400" y="340" width="20" height="10" fill="#D9A686" />
<rect x="420" y="340" width="20" height="10" fill="#010929" />
<rect x="440" y="340" width="40" height="10" fill="#263253" />
<rect x="480" y="340" width="30" height="10" fill="#6069A1" />
<rect x="510" y="340" width="80" height="10" fill="#263253" />
<rect x="270" y="350" width="110" height="10" fill="#263253" />
<rect x="380" y="350" width="10" height="10" fill="#010929" />
<rect x="390" y="350" width="50" height="10" fill="#D9A686" />
<rect x="440" y="350" width="20" height="10" fill="#010929" />
<rect x="460" y="350" width="30" height="10" fill="#263253" />
<rect x="490" y="350" width="100" height="10" fill="#6069A1" />
<rect x="270" y="360" width="90" height="10" fill="#263253" />
<rect x="360" y="360" width="20" height="10" fill="#010929" />
<rect x="380" y="360" width="70" height="10" fill="#D9A686" />
<rect x="450" y="360" width="10" height="40" fill="#010929" />
<rect x="460" y="360" width="40" height="10" fill="#263253" />
<rect x="500" y="360" width="90" height="10" fill="#6069A1" />
<rect x="250" y="370" width="10" height="60" fill="#010929" />
<rect x="260" y="370" width="80" height="10" fill="#263253" />
<rect x="340" y="370" width="20" height="10" fill="#010929" />
<rect x="360" y="370" width="90" height="10" fill="#D9A686" />
<rect x="460" y="370" width="60" height="10" fill="#263253" />
<rect x="520" y="370" width="70" height="10" fill="#6069A1" />
<rect x="260" y="380" width="70" height="10" fill="#263253" />
<rect x="330" y="380" width="10" height="10" fill="#010929" />
<rect x="340" y="380" width="110" height="10" fill="#D9A686" />
<rect x="460" y="380" width="130" height="20" fill="#263253" />
<rect x="260" y="390" width="60" height="30" fill="#263253" />
<rect x="320" y="390" width="10" height="30" fill="#010929" />
<rect x="330" y="390" width="120" height="10" fill="#D9A686" />
<rect x="330" y="400" width="130" height="20" fill="#D9A686" />
<rect x="460" y="400" width="10" height="20" fill="#010929" />
<rect x="470" y="400" width="120" height="20" fill="#263253" />
<rect x="590" y="410" width="30" height="10" fill="#010929" />
<rect x="260" y="420" width="50" height="10" fill="#263253" />
<rect x="310" y="420" width="10" height="20" fill="#010929" />
<rect x="320" y="420" width="150" height="20" fill="#D9A686" />
<rect x="470" y="420" width="10" height="20" fill="#010929" />
<rect x="480" y="420" width="130" height="10" fill="#263253" />
<rect x="610" y="420" width="20" height="10" fill="#010929" />
<rect x="260" y="430" width="10" height="30" fill="#010929" />
<rect x="270" y="430" width="40" height="10" fill="#263253" />
<rect x="480" y="430" width="140" height="10" fill="#263253" />
<rect x="620" y="430" width="20" height="10" fill="#010929" />
<rect x="270" y="440" width="30" height="10" fill="#263253" />
<rect x="300" y="440" width="10" height="10" fill="#010929" />
<rect x="310" y="440" width="170" height="10" fill="#D9A686" />
<rect x="480" y="440" width="10" height="10" fill="#010929" />
<rect x="490" y="440" width="140" height="10" fill="#263253" />
<rect x="630" y="440" width="20" height="10" fill="#010929" />
<rect x="270" y="450" width="20" height="10" fill="#263253" />
<rect x="290" y="450" width="10" height="10" fill="#010929" />
<rect x="300" y="450" width="190" height="10" fill="#D9A686" />
<rect x="490" y="450" width="10" height="10" fill="#010929" />
<rect x="500" y="450" width="140" height="10" fill="#263253" />
<rect x="640" y="450" width="10" height="10" fill="#010929" />
<rect x="250" y="460" width="10" height="30" fill="#010929" />
<rect x="260" y="460" width="30" height="10" fill="#263253" />
<rect x="290" y="460" width="20" height="10" fill="#010929" />
<rect x="310" y="460" width="170" height="10" fill="#D9A686" />
<rect x="480" y="460" width="10" height="10" fill="#010929" />
<rect x="490" y="460" width="150" height="10" fill="#263253" />
<rect x="640" y="460" width="20" height="10" fill="#010929" />
<rect x="260" y="470" width="20" height="10" fill="#263253" />
<rect x="280" y="470" width="30" height="10" fill="#010929" />
<rect x="310" y="470" width="30" height="10" fill="#D9A686" />
<rect x="460" y="470" width="10" height="10" fill="#D9A686" />
<rect x="470" y="470" width="20" height="10" fill="#010929" />
<rect x="490" y="470" width="160" height="10" fill="#263253" />
<rect x="650" y="470" width="10" height="20" fill="#010929" />
<rect x="260" y="480" width="10" height="10" fill="#263253" />
<rect x="270" y="480" width="40" height="10" fill="#010929" />
<rect x="310" y="480" width="20" height="10" fill="#D9A686" />
<rect x="450" y="480" width="20" height="10" fill="#D9A686" />
<rect x="470" y="480" width="10" height="20" fill="#010929" />
<rect x="480" y="480" width="170" height="20" fill="#263253" />
<rect x="250" y="490" width="20" height="10" fill="#010929" />
<rect x="280" y="490" width="40" height="10" fill="#010929" />
<rect x="320" y="490" width="10" height="10" fill="#D9A686" />
<rect x="460" y="490" width="10" height="10" fill="#D9A686" />
<rect x="650" y="490" width="20" height="10" fill="#010929" />
<rect x="290" y="500" width="40" height="10" fill="#010929" />
<rect x="460" y="500" width="20" height="10" fill="#010929" />
<rect x="480" y="500" width="180" height="10" fill="#263253" />
<rect x="660" y="500" width="10" height="60" fill="#010929" />
<rect x="300" y="510" width="40" height="10" fill="#010929" />
<rect x="460" y="510" width="10" height="40" fill="#010929" />
<rect x="470" y="510" width="190" height="40" fill="#263253" />
<rect x="300" y="520" width="50" height="10" fill="#010929" />
<rect x="300" y="530" width="70" height="10" fill="#010929" />
<rect x="300" y="540" width="80" height="10" fill="#010929" />
<rect x="300" y="550" width="40" height="10" fill="#010929" />
<rect x="460" y="550" width="20" height="10" fill="#010929" />
<rect x="480" y="550" width="180" height="10" fill="#263253" />
<rect x="470" y="560" width="10" height="20" fill="#010929" />
<rect x="480" y="560" width="170" height="20" fill="#263253" />
<rect x="650" y="560" width="20" height="10" fill="#010929" />
<rect x="650" y="570" width="10" height="30" fill="#010929" />
<rect x="470" y="580" width="20" height="10" fill="#010929" />
<rect x="490" y="580" width="110" height="20" fill="#263253" />
<rect x="600" y="580" width="10" height="20" fill="#010929" />
<rect x="610" y="580" width="40" height="20" fill="#263253" />
<rect x="480" y="590" width="10" height="10" fill="#010929" />
<rect x="480" y="600" width="20" height="10" fill="#010929" />
<rect x="500" y="600" width="90" height="10" fill="#263253" />
<rect x="590" y="600" width="10" height="10" fill="#010929" />
<rect x="600" y="600" width="10" height="10" fill="#263253" />
<rect x="610" y="600" width="10" height="20" fill="#010929" />
<rect x="620" y="600" width="30" height="10" fill="#263253" />
<rect x="650" y="600" width="20" height="10" fill="#010929" />
<rect x="490" y="610" width="20" height="10" fill="#010929" />
<rect x="510" y="610" width="70" height="10" fill="#263253" />
<rect x="580" y="610" width="10" height="10" fill="#010929" />
<rect x="590" y="610" width="20" height="10" fill="#263253" />
<rect x="620" y="610" width="40" height="10" fill="#263253" />
<rect x="660" y="610" width="20" height="10" fill="#010929" />
<rect x="500" y="620" width="30" height="10" fill="#010929" />
<rect x="530" y="620" width="40" height="10" fill="#263253" />
<rect x="570" y="620" width="10" height="10" fill="#010929" />
<rect x="580" y="620" width="40" height="10" fill="#263253" />
<rect x="620" y="620" width="10" height="10" fill="#010929" />
<rect x="630" y="620" width="40" height="10" fill="#263253" />
<rect x="670" y="620" width="20" height="10" fill="#010929" />
<rect x="520" y="630" width="50" height="10" fill="#010929" />
<rect x="570" y="630" width="60" height="10" fill="#263253" />
<rect x="630" y="630" width="10" height="10" fill="#010929" />
<rect x="640" y="630" width="40" height="10" fill="#263253" />
<rect x="680" y="630" width="10" height="10" fill="#010929" />
<rect x="540" y="640" width="20" height="10" fill="#010929" />
<rect x="560" y="640" width="80" height="10" fill="#263253" />
<rect x="640" y="640" width="30" height="10" fill="#010929" />
<rect x="670" y="640" width="10" height="10" fill="#263253" />
<rect x="680" y="640" width="20" height="10" fill="#010929" />
<rect x="540" y="650" width="10" height="10" fill="#010929" />
<rect x="550" y="650" width="140" height="20" fill="#263253" />
<rect x="690" y="650" width="10" height="10" fill="#010929" />
<rect x="530" y="660" width="20" height="10" fill="#010929" />
<rect x="690" y="660" width="20" height="10" fill="#010929" />
<rect x="520" y="670" width="20" height="10" fill="#010929" />
<rect x="540" y="670" width="160" height="10" fill="#263253" />
<rect x="700" y="670" width="10" height="50" fill="#010929" />
<rect x="510" y="680" width="20" height="10" fill="#010929" />
<rect x="530" y="680" width="80" height="10" fill="#263253" />
<rect x="610" y="680" width="10" height="10" fill="#010929" />
<rect x="620" y="680" width="80" height="10" fill="#263253" />
<rect x="500" y="690" width="20" height="10" fill="#010929" />
<rect x="520" y="690" width="70" height="10" fill="#263253" />
<rect x="590" y="690" width="20" height="10" fill="#010929" />
<rect x="610" y="690" width="90" height="10" fill="#263253" />
<rect x="500" y="700" width="90" height="10" fill="#010929" />
<rect x="590" y="700" width="110" height="10" fill="#263253" />
<rect x="550" y="710" width="20" height="10" fill="#010929" />
<rect x="570" y="710" width="130" height="10" fill="#263253" />
<rect x="550" y="720" width="10" height="20" fill="#010929" />
<rect x="560" y="720" width="130" height="30" fill="#263253" />
<rect x="690" y="720" width="20" height="10" fill="#010929" />
<rect x="690" y="730" width="10" height="70" fill="#010929" />
<rect x="540" y="740" width="20" height="10" fill="#010929" />
<rect x="540" y="750" width="10" height="50" fill="#010929" />
<rect x="550" y="750" width="140" height="10" fill="#263253" />
<rect x="550" y="760" width="90" height="20" fill="#263253" />
<rect x="640" y="760" width="10" height="20" fill="#010929" />
<rect x="650" y="760" width="40" height="20" fill="#263253" />
<rect x="550" y="780" width="100" height="20" fill="#263253" />
<rect x="650" y="780" width="10" height="20" fill="#010929" />
<rect x="660" y="780" width="30" height="20" fill="#263253" />
<rect x="540" y="800" width="20" height="10" fill="#010929" />
<rect x="560" y="800" width="100" height="10" fill="#263253" />
<rect x="660" y="800" width="10" height="10" fill="#010929" />
<rect x="670" y="800" width="30" height="10" fill="#263253" />
<rect x="700" y="800" width="10" height="10" fill="#010929" />
<rect x="550" y="810" width="20" height="20" fill="#010929" />
<rect x="570" y="810" width="100" height="10" fill="#263253" />
<rect x="670" y="810" width="110" height="10" fill="#010929" />
<rect x="570" y="820" width="190" height="10" fill="#263253" />
<rect x="760" y="820" width="20" height="10" fill="#010929" />
<rect x="550" y="830" width="30" height="10" fill="#010929" />
<rect x="580" y="830" width="170" height="10" fill="#263253" />
<rect x="750" y="830" width="20" height="10" fill="#010929" />
<rect x="550" y="840" width="40" height="10" fill="#010929" />
<rect x="590" y="840" width="150" height="10" fill="#263253" />
<rect x="740" y="840" width="20" height="10" fill="#010929" />
<rect x="560" y="850" width="40" height="20" fill="#010929" />
<rect x="600" y="850" width="130" height="10" fill="#263253" />
<rect x="730" y="850" width="20" height="10" fill="#010929" />
<rect x="600" y="860" width="120" height="10" fill="#263253" />
<rect x="720" y="860" width="20" height="10" fill="#010929" />
<rect x="570" y="870" width="40" height="30" fill="#010929" />
<rect x="610" y="870" width="110" height="20" fill="#263253" />
<rect x="720" y="870" width="10" height="10" fill="#010929" />
<rect x="720" y="880" width="20" height="10" fill="#010929" />
<rect x="610" y="890" width="120" height="20" fill="#263253" />
<rect x="730" y="890" width="20" height="20" fill="#010929" />
<rect x="560" y="900" width="50" height="40" fill="#010929" />
<rect x="610" y="910" width="50" height="10" fill="#263253" />
<rect x="660" y="910" width="10" height="10" fill="#010929" />
<rect x="670" y="910" width="70" height="10" fill="#263253" />
<rect x="740" y="910" width="20" height="10" fill="#010929" />
<rect x="610" y="920" width="60" height="10" fill="#263253" />
<rect x="670" y="920" width="10" height="10" fill="#010929" />
<rect x="680" y="920" width="70" height="10" fill="#263253" />
<rect x="750" y="920" width="10" height="10" fill="#010929" />
<rect x="610" y="930" width="70" height="10" fill="#263253" />
<rect x="680" y="930" width="10" height="10" fill="#010929" />
<rect x="690" y="930" width="60" height="10" fill="#263253" />
<rect x="750" y="930" width="20" height="10" fill="#010929" />
<rect x="550" y="940" width="60" height="30" fill="#010929" />
<rect x="610" y="940" width="80" height="10" fill="#263253" />
<rect x="690" y="940" width="10" height="10" fill="#010929" />
<rect x="700" y="940" width="60" height="10" fill="#263253" />
<rect x="760" y="940" width="10" height="90" fill="#010929" />
<rect x="610" y="950" width="90" height="10" fill="#263253" />
<rect x="700" y="950" width="10" height="10" fill="#010929" />
<rect x="710" y="950" width="50" height="10" fill="#263253" />
<rect x="610" y="960" width="100" height="10" fill="#263253" />
<rect x="710" y="960" width="10" height="10" fill="#010929" />
<rect x="720" y="960" width="40" height="10" fill="#263253" />
<rect x="540" y="970" width="70" height="30" fill="#010929" />
<rect x="610" y="970" width="110" height="20" fill="#263253" />
<rect x="720" y="970" width="10" height="20" fill="#010929" />
<rect x="730" y="970" width="30" height="20" fill="#263253" />
<rect x="610" y="990" width="120" height="10" fill="#263253" />
<rect x="730" y="990" width="10" height="30" fill="#010929" />
<rect x="740" y="990" width="20" height="30" fill="#263253" />
<rect x="530" y="1000" width="70" height="20" fill="#010929" />
<rect x="600" y="1000" width="130" height="20" fill="#263253" />
<rect x="520" y="1020" width="70" height="10" fill="#010929" />
<rect x="590" y="1020" width="150" height="10" fill="#263253" />
<rect x="740" y="1020" width="10" height="10" fill="#010929" />
<rect x="750" y="1020" width="10" height="10" fill="#263253" />
<rect x="510" y="1030" width="70" height="10" fill="#010929" />
<rect x="580" y="1030" width="160" height="10" fill="#263253" />
<rect x="740" y="1030" width="30" height="10" fill="#010929" />
<rect x="430" y="1040" width="130" height="10" fill="#010929" />
<rect x="560" y="1040" width="180" height="10" fill="#263253" />
<rect x="740" y="1040" width="20" height="20" fill="#010929" />
<rect x="430" y="1050" width="20" height="20" fill="#010929" />
<rect x="450" y="1050" width="290" height="10" fill="#263253" />
<rect x="450" y="1060" width="170" height="10" fill="#263253" />
<rect x="620" y="1060" width="10" height="20" fill="#010929" />
<rect x="630" y="1060" width="110" height="20" fill="#263253" />
<rect x="740" y="1060" width="10" height="30" fill="#010929" />
<rect x="440" y="1070" width="20" height="10" fill="#010929" />
<rect x="460" y="1070" width="160" height="10" fill="#263253" />
<rect x="450" y="1080" width="20" height="10" fill="#010929" />
<rect x="470" y="1080" width="140" height="10" fill="#263253" />
<rect x="610" y="1080" width="10" height="10" fill="#010929" />
<rect x="620" y="1080" width="120" height="10" fill="#263253" />
<rect x="460" y="1090" width="20" height="10" fill="#010929" />
<rect x="480" y="1090" width="110" height="10" fill="#263253" />
<rect x="590" y="1090" width="20" height="10" fill="#010929" />
<rect x="610" y="1090" width="130" height="10" fill="#263253" />
<rect x="740" y="1090" width="20" height="10" fill="#010929" />
<rect x="470" y="1100" width="30" height="10" fill="#010929" />
<rect x="500" y="1100" width="50" height="10" fill="#263253" />
<rect x="550" y="1100" width="40" height="10" fill="#010929" />
<rect x="590" y="1100" width="160" height="10" fill="#263253" />
<rect x="750" y="1100" width="10" height="10" fill="#010929" />
<rect x="490" y="1110" width="60" height="10" fill="#010929" />
<rect x="550" y="1110" width="200" height="10" fill="#263253" />
<rect x="750" y="1110" width="20" height="10" fill="#010929" />
<rect x="500" y="1120" width="10" height="20" fill="#010929" />
<rect x="510" y="1120" width="250" height="10" fill="#263253" />
<rect x="760" y="1120" width="10" height="50" fill="#010929" />
<rect x="510" y="1130" width="80" height="10" fill="#263253" />
<rect x="590" y="1130" width="20" height="10" fill="#010929" />
<rect x="610" y="1130" width="150" height="10" fill="#263253" />
<rect x="490" y="1140" width="20" height="10" fill="#010929" />
<rect x="510" y="1140" width="70" height="10" fill="#263253" />
<rect x="580" y="1140" width="10" height="10" fill="#010929" />
<rect x="590" y="1140" width="170" height="10" fill="#263253" />
<rect x="490" y="1150" width="10" height="10" fill="#010929" />
<rect x="500" y="1150" width="70" height="10" fill="#263253" />
<rect x="570" y="1150" width="10" height="10" fill="#010929" />
<rect x="580" y="1150" width="180" height="10" fill="#263253" />
<rect x="480" y="1160" width="20" height="10" fill="#010929" />
<rect x="500" y="1160" width="60" height="10" fill="#263253" />
<rect x="560" y="1160" width="10" height="20" fill="#010929" />
<rect x="570" y="1160" width="190" height="10" fill="#263253" />
<rect x="470" y="1170" width="10" height="10" fill="#010929" />
<rect x="480" y="1170" width="80" height="10" fill="#263253" />
<rect x="570" y="1170" width="180" height="10" fill="#263253" />
<rect x="750" y="1170" width="10" height="60" fill="#010929" />
<rect x="460" y="1180" width="20" height="10" fill="#010929" />
<rect x="480" y="1180" width="70" height="10" fill="#263253" />
<rect x="550" y="1180" width="10" height="30" fill="#010929" />
<rect x="560" y="1180" width="190" height="30" fill="#263253" />
<rect x="460" y="1190" width="10" height="70" fill="#010929" />
<rect x="470" y="1190" width="80" height="20" fill="#263253" />
<rect x="470" y="1210" width="60" height="10" fill="#263253" />
<rect x="530" y="1210" width="20" height="10" fill="#010929" />
<rect x="550" y="1210" width="70" height="20" fill="#263253" />
<rect x="620" y="1210" width="10" height="20" fill="#010929" />
<rect x="630" y="1210" width="120" height="20" fill="#263253" />
<rect x="470" y="1220" width="50" height="10" fill="#263253" />
<rect x="520" y="1220" width="30" height="10" fill="#010929" />
<rect x="470" y="1230" width="40" height="20" fill="#263253" />
<rect x="510" y="1230" width="20" height="10" fill="#010929" />
<rect x="540" y="1230" width="10" height="30" fill="#010929" />
<rect x="550" y="1230" width="60" height="40" fill="#263253" />
<rect x="610" y="1230" width="10" height="40" fill="#010929" />
<rect x="620" y="1230" width="120" height="10" fill="#263253" />
<rect x="740" y="1230" width="20" height="10" fill="#010929" />
<rect x="510" y="1240" width="10" height="10" fill="#010929" />
<rect x="620" y="1240" width="110" height="20" fill="#263253" />
<rect x="730" y="1240" width="20" height="10" fill="#010929" />
<rect x="470" y="1250" width="30" height="10" fill="#263253" />
<rect x="500" y="1250" width="20" height="10" fill="#010929" />
<rect x="730" y="1250" width="10" height="10" fill="#010929" />
<rect x="460" y="1260" width="20" height="10" fill="#010929" />
<rect x="480" y="1260" width="20" height="10" fill="#263253" />
<rect x="500" y="1260" width="10" height="10" fill="#010929" />
<rect x="530" y="1260" width="20" height="10" fill="#010929" />
<rect x="620" y="1260" width="40" height="10" fill="#263253" />
<rect x="660" y="1260" width="10" height="50" fill="#010929" />
<rect x="670" y="1260" width="50" height="20" fill="#263253" />
<rect x="720" y="1260" width="20" height="10" fill="#010929" />
<rect x="470" y="1270" width="10" height="10" fill="#010929" />
<rect x="480" y="1270" width="10" height="10" fill="#263253" />
<rect x="490" y="1270" width="20" height="10" fill="#010929" />
<rect x="530" y="1270" width="10" height="20" fill="#010929" />
<rect x="540" y="1270" width="60" height="20" fill="#263253" />
<rect x="600" y="1270" width="10" height="20" fill="#010929" />
<rect x="610" y="1270" width="50" height="40" fill="#263253" />
<rect x="720" y="1270" width="10" height="10" fill="#010929" />
<rect x="470" y="1280" width="30" height="10" fill="#010929" />
<rect x="670" y="1280" width="40" height="30" fill="#263253" />
<rect x="710" y="1280" width="20" height="10" fill="#010929" />
<rect x="480" y="1290" width="20" height="10" fill="#010929" />
<rect x="520" y="1290" width="20" height="10" fill="#010929" />
<rect x="540" y="1290" width="50" height="10" fill="#263253" />
<rect x="590" y="1290" width="20" height="10" fill="#010929" />
<rect x="710" y="1290" width="10" height="30" fill="#010929" />
<rect x="520" y="1300" width="10" height="10" fill="#010929" />
<rect x="530" y="1300" width="50" height="10" fill="#263253" />
<rect x="580" y="1300" width="30" height="10" fill="#010929" />
<rect x="510" y="1310" width="20" height="10" fill="#010929" />
<rect x="530" y="1310" width="40" height="10" fill="#263253" />
<rect x="570" y="1310" width="20" height="10" fill="#010929" />
<rect x="600" y="1310" width="10" height="20" fill="#010929" />
<rect x="610" y="1310" width="40" height="30" fill="#263253" />
<rect x="650" y="1310" width="10" height="20" fill="#010929" />
<rect x="660" y="1310" width="50" height="20" fill="#263253" />
<rect x="510" y="1320" width="10" height="10" fill="#010929" />
<rect x="520" y="1320" width="40" height="10" fill="#263253" />
<rect x="560" y="1320" width="20" height="10" fill="#010929" />
<rect x="710" y="1320" width="20" height="10" fill="#010929" />
<rect x="500" y="1330" width="20" height="10" fill="#010929" />
<rect x="520" y="1330" width="30" height="10" fill="#263253" />
<rect x="550" y="1330" width="20" height="10" fill="#010929" />
<rect x="590" y="1330" width="20" height="10" fill="#010929" />
<rect x="650" y="1330" width="20" height="10" fill="#010929" />
<rect x="670" y="1330" width="50" height="10" fill="#263253" />
<rect x="720" y="1330" width="10" height="10" fill="#010929" />
<rect x="500" y="1340" width="10" height="10" fill="#010929" />
<rect x="510" y="1340" width="30" height="10" fill="#263253" />
<rect x="540" y="1340" width="20" height="10" fill="#010929" />
<rect x="590" y="1340" width="10" height="10" fill="#010929" />
<rect x="600" y="1340" width="40" height="10" fill="#263253" />
<rect x="640" y="1340" width="40" height="10" fill="#010929" />
<rect x="680" y="1340" width="40" height="10" fill="#263253" />
<rect x="720" y="1340" width="20" height="10" fill="#010929" />
<rect x="490" y="1350" width="20" height="10" fill="#010929" />
<rect x="510" y="1350" width="10" height="10" fill="#263253" />
<rect x="520" y="1350" width="30" height="10" fill="#010929" />
<rect x="580" y="1350" width="20" height="10" fill="#010929" />
<rect x="600" y="1350" width="30" height="10" fill="#263253" />
<rect x="630" y="1350" width="20" height="10" fill="#010929" />
<rect x="670" y="1350" width="20" height="10" fill="#010929" />
<rect x="690" y="1350" width="40" height="10" fill="#263253" />
<rect x="730" y="1350" width="10" height="20" fill="#010929" />
<rect x="490" y="1360" width="40" height="10" fill="#010929" />
<rect x="570" y="1360" width="20" height="10" fill="#010929" />
<rect x="590" y="1360" width="30" height="10" fill="#263253" />
<rect x="620" y="1360" width="20" height="10" fill="#010929" />
<rect x="680" y="1360" width="20" height="10" fill="#010929" />
<rect x="700" y="1360" width="30" height="10" fill="#263253" />
<rect x="560" y="1370" width="20" height="10" fill="#010929" />
<rect x="580" y="1370" width="20" height="10" fill="#263253" />
<rect x="600" y="1370" width="30" height="10" fill="#010929" />
<rect x="690" y="1370" width="30" height="10" fill="#010929" />
<rect x="720" y="1370" width="10" height="10" fill="#263253" />
<rect x="730" y="1370" width="20" height="10" fill="#010929" />
<rect x="560" y="1380" width="50" height="10" fill="#010929" />
<rect x="710" y="1380" width="40" height="10" fill="#010929" />
</svg>
