<?xml version="1.0" encoding="UTF-8"?>
<svg version="1.1" width="1000" height="2000" viewBox="0 0 1000 2000" xmlns="http://www.w3.org/2000/svg" shape-rendering="crispEdges">
<rect x="390" y="200" width="70" height="10" fill="#010929" />
<rect x="360" y="210" width="30" height="10" fill="#010929" />
<rect x="390" y="210" width="70" height="10" fill="#263253" />
<rect x="460" y="210" width="20" height="10" fill="#010929" />
<rect x="340" y="220" width="20" height="10" fill="#010929" />
<rect x="360" y="220" width="120" height="10" fill="#263253" />
<rect x="480" y="220" width="20" height="10" fill="#010929" />
<rect x="330" y="230" width="10" height="10" fill="#010929" />
<rect x="340" y="230" width="160" height="10" fill="#263253" />
<rect x="500" y="230" width="10" height="10" fill="#010929" />
<rect x="320" y="240" width="10" height="10" fill="#010929" />
<rect x="330" y="240" width="180" height="10" fill="#263253" />
<rect x="510" y="240" width="10" height="10" fill="#010929" />
<rect x="310" y="250" width="10" height="10" fill="#010929" />
<rect x="320" y="250" width="60" height="10" fill="#263253" />
<rect x="380" y="250" width="20" height="10" fill="#010929" />
<rect x="400" y="250" width="120" height="10" fill="#263253" />
<rect x="520" y="250" width="10" height="10" fill="#010929" />
<rect x="300" y="260" width="10" height="10" fill="#010929" />
<rect x="310" y="260" width="20" height="10" fill="#6069A1" />
<rect x="330" y="260" width="70" height="10" fill="#263253" />
<rect x="400" y="260" width="10" height="10" fill="#010929" />
<rect x="410" y="260" width="90" height="10" fill="#263253" />
<rect x="500" y="260" width="60" height="10" fill="#010929" />
<rect x="290" y="270" width="10" height="10" fill="#010929" />
<rect x="300" y="270" width="70" height="10" fill="#6069A1" />
<rect x="370" y="270" width="40" height="10" fill="#263253" />
<rect x="410" y="270" width="10" height="40" fill="#010929" />
<rect x="420" y="270" width="60" height="10" fill="#263253" />
<rect x="480" y="270" width="20" height="10" fill="#010929" />
<rect x="500" y="270" width="60" height="10" fill="#263253" />
<rect x="560" y="270" width="10" height="10" fill="#010929" />
<rect x="280" y="280" width="10" height="20" fill="#010929" />
<rect x="290" y="280" width="30" height="10" fill="#263253" />
<rect x="320" y="280" width="90" height="10" fill="#6069A1" />
<rect x="420" y="280" width="50" height="10" fill="#6069A1" />
<rect x="470" y="280" width="10" height="10" fill="#010929" />
<rect x="480" y="280" width="90" height="10" fill="#263253" />
<rect x="570" y="280" width="10" height="10" fill="#010929" />
<rect x="290" y="290" width="60" height="10" fill="#263253" />
<rect x="350" y="290" width="60" height="10" fill="#6069A1" />
<rect x="420" y="290" width="60" height="10" fill="#6069A1" />
<rect x="480" y="290" width="100" height="10" fill="#263253" />
<rect x="580" y="290" width="10" height="20" fill="#010929" />
<rect x="270" y="300" width="10" height="20" fill="#010929" />
<rect x="280" y="300" width="130" height="10" fill="#263253" />
<rect x="420" y="300" width="40" height="10" fill="#263253" />
<rect x="460" y="300" width="30" height="10" fill="#6069A1" />
<rect x="490" y="300" width="90" height="10" fill="#263253" />
<rect x="280" y="310" width="120" height="10" fill="#263253" />
<rect x="400" y="310" width="20" height="10" fill="#010929" />
<rect x="420" y="310" width="50" height="10" fill="#263253" />
<rect x="470" y="310" width="30" height="10" fill="#6069A1" />
<rect x="500" y="310" width="90" height="10" fill="#263253" />
<rect x="590" y="310" width="10" height="80" fill="#010929" />
<rect x="260" y="320" width="10" height="30" fill="#010929" />
<rect x="270" y="320" width="120" height="10" fill="#263253" />
<rect x="390" y="320" width="10" height="10" fill="#010929" />
<rect x="400" y="320" width="20" height="10" fill="#D9A686" />
<rect x="420" y="320" width="20" height="10" fill="#010929" />
<rect x="440" y="320" width="40" height="10" fill="#263253" />
<rect x="480" y="320" width="30" height="10" fill="#6069A1" />
<rect x="510" y="320" width="80" height="10" fill="#263253" />
<rect x="270" y="330" width="110" height="10" fill="#263253" />
<rect x="380" y="330" width="10" height="10" fill="#010929" />
<rect x="390" y="330" width="50" height="10" fill="#D9A686" />
<rect x="440" y="330" width="20" height="10" fill="#010929" />
<rect x="460" y="330" width="30" height="10" fill="#263253" />
<rect x="490" y="330" width="100" height="10" fill="#6069A1" />
<rect x="270" y="340" width="90" height="10" fill="#263253" />
<rect x="360" y="340" width="20" height="10" fill="#010929" />
<rect x="380" y="340" width="70" height="10" fill="#D9A686" />
<rect x="450" y="340" width="10" height="40" fill="#010929" />
<rect x="460" y="340" width="40" height="10" fill="#263253" />
<rect x="500" y="340" width="90" height="10" fill="#6069A1" />
<rect x="250" y="350" width="10" height="60" fill="#010929" />
<rect x="260" y="350" width="80" height="10" fill="#263253" />
<rect x="340" y="350" width="20" height="10" fill="#010929" />
<rect x="360" y="350" width="90" height="10" fill="#D9A686" />
<rect x="460" y="350" width="60" height="10" fill="#263253" />
<rect x="520" y="350" width="70" height="10" fill="#6069A1" />
<rect x="260" y="360" width="70" height="10" fill="#263253" />
<rect x="330" y="360" width="10" height="10" fill="#010929" />
<rect x="340" y="360" width="110" height="10" fill="#D9A686" />
<rect x="460" y="360" width="130" height="20" fill="#263253" />
<rect x="260" y="370" width="60" height="30" fill="#263253" />
<rect x="320" y="370" width="10" height="30" fill="#010929" />
<rect x="330" y="370" width="120" height="10" fill="#D9A686" />
<rect x="330" y="380" width="130" height="20" fill="#D9A686" />
<rect x="460" y="380" width="10" height="20" fill="#010929" />
<rect x="470" y="380" width="120" height="20" fill="#263253" />
<rect x="590" y="390" width="30" height="10" fill="#010929" />
<rect x="260" y="400" width="50" height="10" fill="#263253" />
<rect x="310" y="400" width="10" height="20" fill="#010929" />
<rect x="320" y="400" width="150" height="20" fill="#D9A686" />
<rect x="470" y="400" width="10" height="20" fill="#010929" />
<rect x="480" y="400" width="130" height="10" fill="#263253" />
<rect x="610" y="400" width="20" height="10" fill="#010929" />
<rect x="260" y="410" width="10" height="30" fill="#010929" />
<rect x="270" y="410" width="40" height="10" fill="#263253" />
<rect x="480" y="410" width="140" height="10" fill="#263253" />
<rect x="620" y="410" width="20" height="10" fill="#010929" />
<rect x="270" y="420" width="30" height="10" fill="#263253" />
<rect x="300" y="420" width="10" height="10" fill="#010929" />
<rect x="310" y="420" width="170" height="10" fill="#D9A686" />
<rect x="480" y="420" width="10" height="10" fill="#010929" />
<rect x="490" y="420" width="140" height="10" fill="#263253" />
<rect x="630" y="420" width="20" height="10" fill="#010929" />
<rect x="270" y="430" width="20" height="10" fill="#263253" />
<rect x="290" y="430" width="10" height="10" fill="#010929" />
<rect x="300" y="430" width="190" height="10" fill="#D9A686" />
<rect x="490" y="430" width="10" height="10" fill="#010929" />
<rect x="500" y="430" width="140" height="10" fill="#263253" />
<rect x="640" y="430" width="10" height="10" fill="#010929" />
<rect x="250" y="440" width="10" height="30" fill="#010929" />
<rect x="260" y="440" width="30" height="10" fill="#263253" />
<rect x="290" y="440" width="20" height="10" fill="#010929" />
<rect x="310" y="440" width="170" height="10" fill="#D9A686" />
<rect x="480" y="440" width="10" height="10" fill="#010929" />
<rect x="490" y="440" width="150" height="10" fill="#263253" />
<rect x="640" y="440" width="20" height="10" fill="#010929" />
<rect x="260" y="450" width="20" height="10" fill="#263253" />
<rect x="280" y="450" width="30" height="10" fill="#010929" />
<rect x="310" y="450" width="30" height="10" fill="#D9A686" />
<rect x="460" y="450" width="10" height="10" fill="#D9A686" />
<rect x="470" y="450" width="20" height="10" fill="#010929" />
<rect x="490" y="450" width="160" height="10" fill="#263253" />
<rect x="650" y="450" width="10" height="20" fill="#010929" />
<rect x="260" y="460" width="10" height="10" fill="#263253" />
<rect x="270" y="460" width="40" height="10" fill="#010929" />
<rect x="310" y="460" width="20" height="10" fill="#D9A686" />
<rect x="450" y="460" width="20" height="10" fill="#D9A686" />
<rect x="470" y="460" width="10" height="20" fill="#010929" />
<rect x="480" y="460" width="170" height="20" fill="#263253" />
<rect x="250" y="470" width="20" height="10" fill="#010929" />
<rect x="280" y="470" width="40" height="10" fill="#010929" />
<rect x="320" y="470" width="10" height="10" fill="#D9A686" />
<rect x="460" y="470" width="10" height="10" fill="#D9A686" />
<rect x="650" y="470" width="20" height="10" fill="#010929" />
<rect x="290" y="480" width="40" height="10" fill="#010929" />
<rect x="460" y="480" width="20" height="10" fill="#010929" />
<rect x="480" y="480" width="180" height="10" fill="#263253" />
<rect x="660" y="480" width="10" height="60" fill="#010929" />
<rect x="300" y="490" width="40" height="10" fill="#010929" />
<rect x="460" y="490" width="10" height="40" fill="#010929" />
<rect x="470" y="490" width="190" height="40" fill="#263253" />
<rect x="300" y="500" width="50" height="10" fill="#010929" />
<rect x="300" y="510" width="70" height="10" fill="#010929" />
<rect x="300" y="520" width="80" height="10" fill="#010929" />
<rect x="300" y="530" width="40" height="10" fill="#010929" />
<rect x="460" y="530" width="20" height="10" fill="#010929" />
<rect x="480" y="530" width="180" height="10" fill="#263253" />
<rect x="470" y="540" width="10" height="20" fill="#010929" />
<rect x="480" y="540" width="170" height="20" fill="#263253" />
<rect x="650" y="540" width="20" height="10" fill="#010929" />
<rect x="650" y="550" width="10" height="30" fill="#010929" />
<rect x="470" y="560" width="20" height="10" fill="#010929" />
<rect x="490" y="560" width="110" height="20" fill="#263253" />
<rect x="600" y="560" width="10" height="20" fill="#010929" />
<rect x="610" y="560" width="40" height="20" fill="#263253" />
<rect x="480" y="570" width="10" height="10" fill="#010929" />
<rect x="480" y="580" width="20" height="10" fill="#010929" />
<rect x="500" y="580" width="90" height="10" fill="#263253" />
<rect x="590" y="580" width="10" height="10" fill="#010929" />
<rect x="600" y="580" width="10" height="10" fill="#263253" />
<rect x="610" y="580" width="10" height="20" fill="#010929" />
<rect x="620" y="580" width="30" height="10" fill="#263253" />
<rect x="650" y="580" width="20" height="10" fill="#010929" />
<rect x="490" y="590" width="20" height="10" fill="#010929" />
<rect x="510" y="590" width="70" height="10" fill="#263253" />
<rect x="580" y="590" width="10" height="10" fill="#010929" />
<rect x="590" y="590" width="20" height="10" fill="#263253" />
<rect x="620" y="590" width="40" height="10" fill="#263253" />
<rect x="660" y="590" width="20" height="10" fill="#010929" />
<rect x="500" y="600" width="30" height="10" fill="#010929" />
<rect x="530" y="600" width="40" height="10" fill="#263253" />
<rect x="570" y="600" width="10" height="10" fill="#010929" />
<rect x="580" y="600" width="40" height="10" fill="#263253" />
<rect x="620" y="600" width="10" height="10" fill="#010929" />
<rect x="630" y="600" width="40" height="10" fill="#263253" />
<rect x="670" y="600" width="20" height="10" fill="#010929" />
<rect x="520" y="610" width="50" height="10" fill="#010929" />
<rect x="570" y="610" width="60" height="10" fill="#263253" />
<rect x="630" y="610" width="10" height="10" fill="#010929" />
<rect x="640" y="610" width="40" height="10" fill="#263253" />
<rect x="680" y="610" width="10" height="10" fill="#010929" />
<rect x="540" y="620" width="20" height="10" fill="#010929" />
<rect x="560" y="620" width="80" height="10" fill="#263253" />
<rect x="640" y="620" width="30" height="10" fill="#010929" />
<rect x="670" y="620" width="10" height="10" fill="#263253" />
<rect x="680" y="620" width="20" height="10" fill="#010929" />
<rect x="540" y="630" width="10" height="10" fill="#010929" />
<rect x="550" y="630" width="140" height="20" fill="#263253" />
<rect x="690" y="630" width="10" height="10" fill="#010929" />
<rect x="530" y="640" width="20" height="10" fill="#010929" />
<rect x="690" y="640" width="20" height="10" fill="#010929" />
<rect x="520" y="650" width="20" height="10" fill="#010929" />
<rect x="540" y="650" width="160" height="10" fill="#263253" />
<rect x="700" y="650" width="10" height="50" fill="#010929" />
<rect x="510" y="660" width="20" height="10" fill="#010929" />
<rect x="530" y="660" width="80" height="10" fill="#263253" />
<rect x="610" y="660" width="10" height="10" fill="#010929" />
<rect x="620" y="660" width="80" height="10" fill="#263253" />
<rect x="500" y="670" width="20" height="10" fill="#010929" />
<rect x="520" y="670" width="70" height="10" fill="#263253" />
<rect x="590" y="670" width="20" height="10" fill="#010929" />
<rect x="610" y="670" width="90" height="10" fill="#263253" />
<rect x="500" y="680" width="90" height="10" fill="#010929" />
<rect x="590" y="680" width="110" height="10" fill="#263253" />
<rect x="550" y="690" width="20" height="10" fill="#010929" />
<rect x="570" y="690" width="130" height="10" fill="#263253" />
<rect x="550" y="700" width="10" height="20" fill="#010929" />
<rect x="560" y="700" width="130" height="30" fill="#263253" />
<rect x="690" y="700" width="20" height="10" fill="#010929" />
<rect x="690" y="710" width="10" height="70" fill="#010929" />
<rect x="540" y="720" width="20" height="10" fill="#010929" />
<rect x="540" y="730" width="10" height="50" fill="#010929" />
<rect x="550" y="730" width="140" height="10" fill="#263253" />
<rect x="550" y="740" width="90" height="20" fill="#263253" />
<rect x="640" y="740" width="10" height="20" fill="#010929" />
<rect x="650" y="740" width="40" height="20" fill="#263253" />
<rect x="550" y="760" width="100" height="20" fill="#263253" />
<rect x="650" y="760" width="10" height="20" fill="#010929" />
<rect x="660" y="760" width="30" height="20" fill="#263253" />
<rect x="540" y="780" width="20" height="10" fill="#010929" />
<rect x="560" y="780" width="100" height="10" fill="#263253" />
<rect x="660" y="780" width="10" height="10" fill="#010929" />
<rect x="670" y="780" width="30" height="10" fill="#263253" />
<rect x="700" y="780" width="10" height="10" fill="#010929" />
<rect x="550" y="790" width="20" height="20" fill="#010929" />
<rect x="570" y="790" width="100" height="10" fill="#263253" />
<rect x="670" y="790" width="110" height="10" fill="#010929" />
<rect x="570" y="800" width="190" height="10" fill="#263253" />
<rect x="760" y="800" width="20" height="10" fill="#010929" />
<rect x="550" y="810" width="30" height="10" fill="#010929" />
<rect x="580" y="810" width="170" height="10" fill="#263253" />
<rect x="750" y="810" width="20" height="10" fill="#010929" />
<rect x="550" y="820" width="40" height="10" fill="#010929" />
<rect x="590" y="820" width="150" height="10" fill="#263253" />
<rect x="740" y="820" width="20" height="10" fill="#010929" />
<rect x="560" y="830" width="40" height="20" fill="#010929" />
<rect x="600" y="830" width="130" height="10" fill="#263253" />
<rect x="730" y="830" width="20" height="10" fill="#010929" />
<rect x="600" y="840" width="120" height="10" fill="#263253" />
<rect x="720" y="840" width="20" height="10" fill="#010929" />
<rect x="570" y="850" width="40" height="30" fill="#010929" />
<rect x="610" y="850" width="110" height="20" fill="#263253" />
<rect x="720" y="850" width="10" height="10" fill="#010929" />
<rect x="720" y="860" width="20" height="10" fill="#010929" />
<rect x="610" y="870" width="120" height="20" fill="#263253" />
<rect x="730" y="870" width="20" height="20" fill="#010929" />
<rect x="560" y="880" width="50" height="40" fill="#010929" />
<rect x="610" y="890" width="50" height="10" fill="#263253" />
<rect x="660" y="890" width="10" height="10" fill="#010929" />
<rect x="670" y="890" width="70" height="10" fill="#263253" />
<rect x="740" y="890" width="20" height="10" fill="#010929" />
<rect x="610" y="900" width="60" height="10" fill="#263253" />
<rect x="670" y="900" width="10" height="10" fill="#010929" />
<rect x="680" y="900" width="70" height="10" fill="#263253" />
<rect x="750" y="900" width="10" height="10" fill="#010929" />
<rect x="610" y="910" width="70" height="10" fill="#263253" />
<rect x="680" y="910" width="10" height="10" fill="#010929" />
<rect x="690" y="910" width="60" height="10" fill="#263253" />
<rect x="750" y="910" width="20" height="10" fill="#010929" />
<rect x="550" y="920" width="60" height="30" fill="#010929" />
<rect x="610" y="920" width="80" height="10" fill="#263253" />
<rect x="690" y="920" width="10" height="10" fill="#010929" />
<rect x="700" y="920" width="60" height="10" fill="#263253" />
<rect x="760" y="920" width="10" height="90" fill="#010929" />
<rect x="610" y="930" width="90" height="10" fill="#263253" />
<rect x="700" y="930" width="10" height="10" fill="#010929" />
<rect x="710" y="930" width="50" height="10" fill="#263253" />
<rect x="610" y="940" width="100" height="10" fill="#263253" />
<rect x="710" y="940" width="10" height="10" fill="#010929" />
<rect x="720" y="940" width="40" height="10" fill="#263253" />
<rect x="540" y="950" width="70" height="30" fill="#010929" />
<rect x="610" y="950" width="110" height="20" fill="#263253" />
<rect x="720" y="950" width="10" height="20" fill="#010929" />
<rect x="730" y="950" width="30" height="20" fill="#263253" />
<rect x="610" y="970" width="120" height="10" fill="#263253" />
<rect x="730" y="970" width="10" height="30" fill="#010929" />
<rect x="740" y="970" width="20" height="30" fill="#263253" />
<rect x="530" y="980" width="70" height="20" fill="#010929" />
<rect x="600" y="980" width="130" height="20" fill="#263253" />
<rect x="520" y="1000" width="70" height="10" fill="#010929" />
<rect x="590" y="1000" width="150" height="10" fill="#263253" />
<rect x="740" y="1000" width="10" height="10" fill="#010929" />
<rect x="750" y="1000" width="10" height="10" fill="#263253" />
<rect x="510" y="1010" width="70" height="10" fill="#010929" />
<rect x="580" y="1010" width="160" height="10" fill="#263253" />
<rect x="740" y="1010" width="30" height="10" fill="#010929" />
<rect x="430" y="1020" width="130" height="10" fill="#010929" />
<rect x="560" y="1020" width="180" height="10" fill="#263253" />
<rect x="740" y="1020" width="20" height="20" fill="#010929" />
<rect x="430" y="1030" width="20" height="20" fill="#010929" />
<rect x="450" y="1030" width="290" height="10" fill="#263253" />
<rect x="450" y="1040" width="170" height="10" fill="#263253" />
<rect x="620" y="1040" width="10" height="20" fill="#010929" />
<rect x="630" y="1040" width="110" height="20" fill="#263253" />
<rect x="740" y="1040" width="10" height="30" fill="#010929" />
<rect x="440" y="1050" width="20" height="10" fill="#010929" />
<rect x="460" y="1050" width="160" height="10" fill="#263253" />
<rect x="450" y="1060" width="20" height="10" fill="#010929" />
<rect x="470" y="1060" width="140" height="10" fill="#263253" />
<rect x="610" y="1060" width="10" height="10" fill="#010929" />
<rect x="620" y="1060" width="120" height="10" fill="#263253" />
<rect x="460" y="1070" width="20" height="10" fill="#010929" />
<rect x="480" y="1070" width="110" height="10" fill="#263253" />
<rect x="590" y="1070" width="20" height="10" fill="#010929" />
<rect x="610" y="1070" width="130" height="10" fill="#263253" />
<rect x="740" y="1070" width="20" height="10" fill="#010929" />
<rect x="470" y="1080" width="30" height="10" fill="#010929" />
<rect x="500" y="1080" width="50" height="10" fill="#263253" />
<rect x="550" y="1080" width="40" height="10" fill="#010929" />
<rect x="590" y="1080" width="160" height="10" fill="#263253" />
<rect x="750" y="1080" width="10" height="10" fill="#010929" />
<rect x="490" y="1090" width="60" height="10" fill="#010929" />
<rect x="550" y="1090" width="200" height="10" fill="#263253" />
<rect x="750" y="1090" width="20" height="10" fill="#010929" />
<rect x="500" y="1100" width="10" height="20" fill="#010929" />
<rect x="510" y="1100" width="250" height="10" fill="#263253" />
<rect x="760" y="1100" width="10" height="50" fill="#010929" />
<rect x="510" y="1110" width="80" height="10" fill="#263253" />
<rect x="590" y="1110" width="20" height="10" fill="#010929" />
<rect x="610" y="1110" width="150" height="10" fill="#263253" />
<rect x="490" y="1120" width="20" height="10" fill="#010929" />
<rect x="510" y="1120" width="70" height="10" fill="#263253" />
<rect x="580" y="1120" width="10" height="10" fill="#010929" />
<rect x="590" y="1120" width="170" height="10" fill="#263253" />
<rect x="490" y="1130" width="10" height="10" fill="#010929" />
<rect x="500" y="1130" width="70" height="10" fill="#263253" />
<rect x="570" y="1130" width="10" height="10" fill="#010929" />
<rect x="580" y="1130" width="180" height="10" fill="#263253" />
<rect x="480" y="1140" width="20" height="10" fill="#010929" />
<rect x="500" y="1140" width="60" height="10" fill="#263253" />
<rect x="560" y="1140" width="10" height="20" fill="#010929" />
<rect x="570" y="1140" width="190" height="10" fill="#263253" />
<rect x="470" y="1150" width="10" height="10" fill="#010929" />
<rect x="480" y="1150" width="80" height="10" fill="#263253" />
<rect x="570" y="1150" width="180" height="10" fill="#263253" />
<rect x="750" y="1150" width="10" height="60" fill="#010929" />
<rect x="460" y="1160" width="20" height="10" fill="#010929" />
<rect x="480" y="1160" width="70" height="10" fill="#263253" />
<rect x="550" y="1160" width="10" height="30" fill="#010929" />
<rect x="560" y="1160" width="190" height="30" fill="#263253" />
<rect x="460" y="1170" width="10" height="70" fill="#010929" />
<rect x="470" y="1170" width="80" height="20" fill="#263253" />
<rect x="470" y="1190" width="60" height="10" fill="#263253" />
<rect x="530" y="1190" width="20" height="10" fill="#010929" />
<rect x="550" y="1190" width="70" height="20" fill="#263253" />
<rect x="620" y="1190" width="10" height="20" fill="#010929" />
<rect x="630" y="1190" width="120" height="20" fill="#263253" />
<rect x="470" y="1200" width="50" height="10" fill="#263253" />
<rect x="520" y="1200" width="30" height="10" fill="#010929" />
<rect x="470" y="1210" width="40" height="20" fill="#263253" />
<rect x="510" y="1210" width="20" height="10" fill="#010929" />
<rect x="540" y="1210" width="10" height="30" fill="#010929" />
<rect x="550" y="1210" width="60" height="40" fill="#263253" />
<rect x="610" y="1210" width="10" height="40" fill="#010929" />
<rect x="620" y="1210" width="120" height="10" fill="#263253" />
<rect x="740" y="1210" width="20" height="10" fill="#010929" />
<rect x="510" y="1220" width="10" height="10" fill="#010929" />
<rect x="620" y="1220" width="110" height="20" fill="#263253" />
<rect x="730" y="1220" width="20" height="10" fill="#010929" />
<rect x="470" y="1230" width="30" height="10" fill="#263253" />
<rect x="500" y="1230" width="20" height="10" fill="#010929" />
<rect x="730" y="1230" width="10" height="10" fill="#010929" />
<rect x="460" y="1240" width="20" height="10" fill="#010929" />
<rect x="480" y="1240" width="20" height="10" fill="#263253" />
<rect x="500" y="1240" width="10" height="10" fill="#010929" />
<rect x="530" y="1240" width="20" height="10" fill="#010929" />
<rect x="620" y="1240" width="40" height="10" fill="#263253" />
<rect x="660" y="1240" width="10" height="50" fill="#010929" />
<rect x="670" y="1240" width="50" height="20" fill="#263253" />
<rect x="720" y="1240" width="20" height="10" fill="#010929" />
<rect x="470" y="1250" width="10" height="10" fill="#010929" />
<rect x="480" y="1250" width="10" height="10" fill="#263253" />
<rect x="490" y="1250" width="20" height="10" fill="#010929" />
<rect x="530" y="1250" width="10" height="20" fill="#010929" />
<rect x="540" y="1250" width="60" height="20" fill="#263253" />
<rect x="600" y="1250" width="10" height="20" fill="#010929" />
<rect x="610" y="1250" width="50" height="40" fill="#263253" />
<rect x="720" y="1250" width="10" height="10" fill="#010929" />
<rect x="470" y="1260" width="30" height="10" fill="#010929" />
<rect x="670" y="1260" width="40" height="30" fill="#263253" />
<rect x="710" y="1260" width="20" height="10" fill="#010929" />
<rect x="480" y="1270" width="20" height="10" fill="#010929" />
<rect x="520" y="1270" width="20" height="10" fill="#010929" />
<rect x="540" y="1270" width="50" height="10" fill="#263253" />
<rect x="590" y="1270" width="20" height="10" fill="#010929" />
<rect x="710" y="1270" width="10" height="30" fill="#010929" />
<rect x="520" y="1280" width="10" height="10" fill="#010929" />
<rect x="530" y="1280" width="50" height="10" fill="#263253" />
<rect x="580" y="1280" width="30" height="10" fill="#010929" />
<rect x="510" y="1290" width="20" height="10" fill="#010929" />
<rect x="530" y="1290" width="40" height="10" fill="#263253" />
<rect x="570" y="1290" width="20" height="10" fill="#010929" />
<rect x="600" y="1290" width="10" height="20" fill="#010929" />
<rect x="610" y="1290" width="40" height="30" fill="#263253" />
<rect x="650" y="1290" width="10" height="20" fill="#010929" />
<rect x="660" y="1290" width="50" height="20" fill="#263253" />
<rect x="510" y="1300" width="10" height="10" fill="#010929" />
<rect x="520" y="1300" width="40" height="10" fill="#263253" />
<rect x="560" y="1300" width="20" height="10" fill="#010929" />
<rect x="710" y="1300" width="20" height="10" fill="#010929" />
<rect x="500" y="1310" width="20" height="10" fill="#010929" />
<rect x="520" y="1310" width="30" height="10" fill="#263253" />
<rect x="550" y="1310" width="20" height="10" fill="#010929" />
<rect x="590" y="1310" width="20" height="10" fill="#010929" />
<rect x="650" y="1310" width="20" height="10" fill="#010929" />
<rect x="670" y="1310" width="50" height="10" fill="#263253" />
<rect x="720" y="1310" width="10" height="10" fill="#010929" />
<rect x="500" y="1320" width="10" height="10" fill="#010929" />
<rect x="510" y="1320" width="30" height="10" fill="#263253" />
<rect x="540" y="1320" width="20" height="10" fill="#010929" />
<rect x="590" y="1320" width="10" height="10" fill="#010929" />
<rect x="600" y="1320" width="40" height="10" fill="#263253" />
<rect x="640" y="1320" width="40" height="10" fill="#010929" />
<rect x="680" y="1320" width="40" height="10" fill="#263253" />
<rect x="720" y="1320" width="20" height="10" fill="#010929" />
<rect x="490" y="1330" width="20" height="10" fill="#010929" />
<rect x="510" y="1330" width="10" height="10" fill="#263253" />
<rect x="520" y="1330" width="30" height="10" fill="#010929" />
<rect x="580" y="1330" width="20" height="10" fill="#010929" />
<rect x="600" y="1330" width="30" height="10" fill="#263253" />
<rect x="630" y="1330" width="20" height="10" fill="#010929" />
<rect x="670" y="1330" width="20" height="10" fill="#010929" />
<rect x="690" y="1330" width="40" height="10" fill="#263253" />
<rect x="730" y="1330" width="10" height="20" fill="#010929" />
<rect x="490" y="1340" width="40" height="10" fill="#010929" />
<rect x="570" y="1340" width="20" height="10" fill="#010929" />
<rect x="590" y="1340" width="30" height="10" fill="#263253" />
<rect x="620" y="1340" width="20" height="10" fill="#010929" />
<rect x="680" y="1340" width="20" height="10" fill="#010929" />
<rect x="700" y="1340" width="30" height="10" fill="#263253" />
<rect x="560" y="1350" width="20" height="10" fill="#010929" />
<rect x="580" y="1350" width="20" height="10" fill="#263253" />
<rect x="600" y="1350" width="30" height="10" fill="#010929" />
<rect x="690" y="1350" width="30" height="10" fill="#010929" />
<rect x="720" y="1350" width="10" height="10" fill="#263253" />
<rect x="730" y="1350" width="20" height="10" fill="#010929" />
<rect x="560" y="1360" width="50" height="10" fill="#010929" />
<rect x="710" y="1360" width="40" height="10" fill="#010929" />
</svg>
