<?xml version="1.0" encoding="UTF-8"?>
<svg version="1.1" width="1000" height="2000" viewBox="0 0 1000 2000" xmlns="http://www.w3.org/2000/svg" shape-rendering="crispEdges">
<rect x="350" y="190" width="40" height="10" fill="#010929" />
<rect x="470" y="190" width="40" height="10" fill="#010929" />
<rect x="330" y="200" width="20" height="10" fill="#010929" />
<rect x="350" y="200" width="40" height="10" fill="#263253" />
<rect x="390" y="200" width="20" height="10" fill="#010929" />
<rect x="450" y="200" width="20" height="10" fill="#010929" />
<rect x="470" y="200" width="40" height="10" fill="#263253" />
<rect x="510" y="200" width="20" height="10" fill="#010929" />
<rect x="320" y="210" width="10" height="10" fill="#010929" />
<rect x="330" y="210" width="80" height="10" fill="#263253" />
<rect x="410" y="210" width="40" height="10" fill="#010929" />
<rect x="450" y="210" width="80" height="10" fill="#263253" />
<rect x="530" y="210" width="10" height="10" fill="#010929" />
<rect x="310" y="220" width="10" height="10" fill="#010929" />
<rect x="320" y="220" width="220" height="20" fill="#263253" />
<rect x="540" y="220" width="10" height="20" fill="#010929" />
<rect x="300" y="230" width="20" height="10" fill="#010929" />
<rect x="270" y="240" width="30" height="10" fill="#010929" />
<rect x="300" y="240" width="250" height="10" fill="#263253" />
<rect x="550" y="240" width="10" height="30" fill="#010929" />
<rect x="260" y="250" width="10" height="10" fill="#010929" />
<rect x="270" y="250" width="70" height="10" fill="#263253" />
<rect x="340" y="250" width="60" height="10" fill="#010929" />
<rect x="400" y="250" width="150" height="10" fill="#263253" />
<rect x="250" y="260" width="10" height="50" fill="#010929" />
<rect x="260" y="260" width="70" height="10" fill="#263253" />
<rect x="330" y="260" width="10" height="10" fill="#010929" />
<rect x="340" y="260" width="60" height="10" fill="#263253" />
<rect x="400" y="260" width="10" height="10" fill="#010929" />
<rect x="410" y="260" width="140" height="10" fill="#263253" />
<rect x="260" y="270" width="60" height="10" fill="#263253" />
<rect x="320" y="270" width="10" height="20" fill="#010929" />
<rect x="330" y="270" width="170" height="10" fill="#263253" />
<rect x="500" y="270" width="30" height="10" fill="#010929" />
<rect x="530" y="270" width="20" height="10" fill="#263253" />
<rect x="550" y="270" width="10" height="10" fill="#6069A1" />
<rect x="560" y="270" width="20" height="10" fill="#010929" />
<rect x="260" y="280" width="10" height="10" fill="#6069A1" />
<rect x="270" y="280" width="50" height="10" fill="#263253" />
<rect x="330" y="280" width="150" height="10" fill="#263253" />
<rect x="480" y="280" width="20" height="10" fill="#010929" />
<rect x="500" y="280" width="30" height="10" fill="#263253" />
<rect x="530" y="280" width="10" height="10" fill="#010929" />
<rect x="540" y="280" width="40" height="10" fill="#6069A1" />
<rect x="580" y="280" width="10" height="10" fill="#010929" />
<rect x="260" y="290" width="40" height="10" fill="#6069A1" />
<rect x="300" y="290" width="40" height="10" fill="#010929" />
<rect x="340" y="290" width="130" height="10" fill="#263253" />
<rect x="470" y="290" width="10" height="10" fill="#010929" />
<rect x="480" y="290" width="30" height="10" fill="#263253" />
<rect x="510" y="290" width="30" height="10" fill="#6069A1" />
<rect x="540" y="290" width="10" height="40" fill="#010929" />
<rect x="550" y="290" width="20" height="10" fill="#6069A1" />
<rect x="570" y="290" width="20" height="10" fill="#263253" />
<rect x="590" y="290" width="10" height="20" fill="#010929" />
<rect x="260" y="300" width="10" height="10" fill="#263253" />
<rect x="270" y="300" width="20" height="10" fill="#6069A1" />
<rect x="290" y="300" width="10" height="10" fill="#010929" />
<rect x="300" y="300" width="40" height="10" fill="#6069A1" />
<rect x="340" y="300" width="10" height="10" fill="#010929" />
<rect x="350" y="300" width="110" height="10" fill="#263253" />
<rect x="460" y="300" width="80" height="10" fill="#6069A1" />
<rect x="550" y="300" width="40" height="10" fill="#263253" />
<rect x="240" y="310" width="10" height="20" fill="#010929" />
<rect x="250" y="310" width="30" height="20" fill="#263253" />
<rect x="280" y="310" width="10" height="40" fill="#010929" />
<rect x="290" y="310" width="220" height="10" fill="#6069A1" />
<rect x="510" y="310" width="30" height="10" fill="#263253" />
<rect x="550" y="310" width="50" height="20" fill="#263253" />
<rect x="600" y="310" width="10" height="40" fill="#010929" />
<rect x="290" y="320" width="30" height="10" fill="#263253" />
<rect x="320" y="320" width="150" height="10" fill="#6069A1" />
<rect x="470" y="320" width="70" height="10" fill="#263253" />
<rect x="230" y="330" width="10" height="10" fill="#010929" />
<rect x="240" y="330" width="40" height="10" fill="#263253" />
<rect x="290" y="330" width="240" height="20" fill="#263253" />
<rect x="530" y="330" width="10" height="20" fill="#010929" />
<rect x="540" y="330" width="60" height="20" fill="#263253" />
<rect x="220" y="340" width="10" height="30" fill="#010929" />
<rect x="230" y="340" width="50" height="10" fill="#263253" />
<rect x="230" y="350" width="60" height="10" fill="#263253" />
<rect x="290" y="350" width="10" height="10" fill="#010929" />
<rect x="300" y="350" width="220" height="10" fill="#263253" />
<rect x="520" y="350" width="10" height="10" fill="#010929" />
<rect x="530" y="350" width="60" height="10" fill="#263253" />
<rect x="590" y="350" width="10" height="20" fill="#010929" />
<rect x="230" y="360" width="360" height="10" fill="#263253" />
<rect x="230" y="370" width="10" height="20" fill="#010929" />
<rect x="240" y="370" width="260" height="10" fill="#263253" />
<rect x="500" y="370" width="10" height="20" fill="#010929" />
<rect x="510" y="370" width="70" height="20" fill="#263253" />
<rect x="580" y="370" width="10" height="40" fill="#010929" />
<rect x="240" y="380" width="30" height="10" fill="#263253" />
<rect x="270" y="380" width="10" height="10" fill="#010929" />
<rect x="280" y="380" width="70" height="10" fill="#263253" />
<rect x="350" y="380" width="80" height="10" fill="#010929" />
<rect x="430" y="380" width="70" height="10" fill="#263253" />
<rect x="240" y="390" width="10" height="10" fill="#010929" />
<rect x="250" y="390" width="30" height="10" fill="#263253" />
<rect x="280" y="390" width="10" height="10" fill="#010929" />
<rect x="290" y="390" width="40" height="10" fill="#263253" />
<rect x="330" y="390" width="20" height="10" fill="#010929" />
<rect x="350" y="390" width="80" height="10" fill="#D9A686" />
<rect x="430" y="390" width="20" height="10" fill="#010929" />
<rect x="450" y="390" width="40" height="10" fill="#263253" />
<rect x="490" y="390" width="10" height="10" fill="#010929" />
<rect x="500" y="390" width="80" height="10" fill="#263253" />
<rect x="250" y="400" width="10" height="10" fill="#010929" />
<rect x="260" y="400" width="30" height="10" fill="#263253" />
<rect x="290" y="400" width="40" height="10" fill="#010929" />
<rect x="330" y="400" width="120" height="10" fill="#D9A686" />
<rect x="450" y="400" width="40" height="10" fill="#010929" />
<rect x="490" y="400" width="90" height="10" fill="#263253" />
<rect x="240" y="410" width="10" height="10" fill="#010929" />
<rect x="250" y="410" width="60" height="10" fill="#263253" />
<rect x="310" y="410" width="10" height="70" fill="#010929" />
<rect x="320" y="410" width="140" height="10" fill="#D9A686" />
<rect x="460" y="410" width="10" height="10" fill="#010929" />
<rect x="470" y="410" width="50" height="10" fill="#263253" />
<rect x="520" y="410" width="60" height="10" fill="#010929" />
<rect x="230" y="420" width="10" height="30" fill="#010929" />
<rect x="240" y="420" width="70" height="30" fill="#263253" />
<rect x="320" y="420" width="150" height="20" fill="#D9A686" />
<rect x="470" y="420" width="10" height="20" fill="#010929" />
<rect x="480" y="420" width="40" height="20" fill="#263253" />
<rect x="520" y="420" width="10" height="30" fill="#010929" />
<rect x="550" y="420" width="30" height="10" fill="#010929" />
<rect x="550" y="430" width="40" height="20" fill="#010929" />
<rect x="320" y="440" width="160" height="30" fill="#D9A686" />
<rect x="480" y="440" width="10" height="50" fill="#010929" />
<rect x="490" y="440" width="30" height="10" fill="#263253" />
<rect x="240" y="450" width="10" height="10" fill="#010929" />
<rect x="250" y="450" width="60" height="10" fill="#263253" />
<rect x="490" y="450" width="20" height="30" fill="#263253" />
<rect x="510" y="450" width="10" height="20" fill="#010929" />
<rect x="540" y="450" width="50" height="10" fill="#010929" />
<rect x="250" y="460" width="10" height="10" fill="#010929" />
<rect x="260" y="460" width="50" height="10" fill="#263253" />
<rect x="530" y="460" width="60" height="10" fill="#010929" />
<rect x="260" y="470" width="20" height="10" fill="#010929" />
<rect x="280" y="470" width="30" height="10" fill="#263253" />
<rect x="320" y="470" width="10" height="30" fill="#D9A686" />
<rect x="460" y="470" width="20" height="20" fill="#D9A686" />
<rect x="510" y="470" width="70" height="10" fill="#010929" />
<rect x="280" y="480" width="40" height="10" fill="#010929" />
<rect x="490" y="480" width="10" height="10" fill="#263253" />
<rect x="500" y="480" width="70" height="10" fill="#010929" />
<rect x="290" y="490" width="30" height="10" fill="#010929" />
<rect x="470" y="490" width="10" height="20" fill="#D9A686" />
<rect x="490" y="490" width="70" height="10" fill="#010929" />
<rect x="300" y="500" width="30" height="10" fill="#010929" />
<rect x="480" y="500" width="70" height="10" fill="#010929" />
<rect x="300" y="510" width="40" height="10" fill="#010929" />
<rect x="470" y="510" width="60" height="20" fill="#010929" />
<rect x="310" y="520" width="40" height="10" fill="#010929" />
<rect x="320" y="530" width="50" height="10" fill="#010929" />
<rect x="470" y="530" width="50" height="10" fill="#010929" />
<rect x="330" y="540" width="50" height="10" fill="#010929" />
<rect x="460" y="540" width="50" height="10" fill="#010929" />
</svg>
