<?xml version="1.0" encoding="UTF-8"?>
<svg version="1.1" width="1000" height="2000" viewBox="0 0 1000 2000" xmlns="http://www.w3.org/2000/svg" shape-rendering="crispEdges">
<rect x="370" y="190" width="60" height="10" fill="#010929" />
<rect x="340" y="200" width="30" height="10" fill="#010929" />
<rect x="370" y="200" width="60" height="10" fill="#263253" />
<rect x="430" y="200" width="20" height="10" fill="#010929" />
<rect x="320" y="210" width="20" height="10" fill="#010929" />
<rect x="340" y="210" width="110" height="10" fill="#263253" />
<rect x="450" y="210" width="10" height="10" fill="#010929" />
<rect x="310" y="220" width="10" height="10" fill="#010929" />
<rect x="320" y="220" width="140" height="10" fill="#263253" />
<rect x="460" y="220" width="10" height="10" fill="#010929" />
<rect x="300" y="230" width="10" height="10" fill="#010929" />
<rect x="310" y="230" width="150" height="10" fill="#263253" />
<rect x="460" y="230" width="40" height="10" fill="#010929" />
<rect x="290" y="240" width="10" height="10" fill="#010929" />
<rect x="300" y="240" width="160" height="10" fill="#263253" />
<rect x="460" y="240" width="10" height="30" fill="#010929" />
<rect x="470" y="240" width="20" height="10" fill="#263253" />
<rect x="490" y="240" width="30" height="10" fill="#010929" />
<rect x="280" y="250" width="10" height="10" fill="#010929" />
<rect x="290" y="250" width="170" height="10" fill="#263253" />
<rect x="470" y="250" width="40" height="10" fill="#263253" />
<rect x="510" y="250" width="20" height="10" fill="#010929" />
<rect x="270" y="260" width="10" height="10" fill="#010929" />
<rect x="280" y="260" width="180" height="10" fill="#263253" />
<rect x="470" y="260" width="50" height="10" fill="#263253" />
<rect x="520" y="260" width="20" height="10" fill="#010929" />
<rect x="260" y="270" width="10" height="10" fill="#010929" />
<rect x="270" y="270" width="10" height="10" fill="#6069A1" />
<rect x="280" y="270" width="170" height="10" fill="#263253" />
<rect x="450" y="270" width="10" height="20" fill="#010929" />
<rect x="460" y="270" width="70" height="10" fill="#263253" />
<rect x="530" y="270" width="20" height="10" fill="#010929" />
<rect x="250" y="280" width="10" height="20" fill="#010929" />
<rect x="260" y="280" width="10" height="10" fill="#263253" />
<rect x="270" y="280" width="20" height="10" fill="#6069A1" />
<rect x="290" y="280" width="110" height="10" fill="#263253" />
<rect x="400" y="280" width="10" height="10" fill="#010929" />
<rect x="410" y="280" width="40" height="10" fill="#263253" />
<rect x="460" y="280" width="60" height="10" fill="#263253" />
<rect x="520" y="280" width="20" height="10" fill="#6069A1" />
<rect x="540" y="280" width="10" height="10" fill="#010929" />
<rect x="260" y="290" width="20" height="10" fill="#263253" />
<rect x="280" y="290" width="20" height="10" fill="#6069A1" />
<rect x="300" y="290" width="90" height="10" fill="#263253" />
<rect x="390" y="290" width="20" height="10" fill="#010929" />
<rect x="410" y="290" width="30" height="20" fill="#263253" />
<rect x="440" y="290" width="10" height="40" fill="#010929" />
<rect x="450" y="290" width="60" height="10" fill="#263253" />
<rect x="510" y="290" width="20" height="10" fill="#6069A1" />
<rect x="530" y="290" width="10" height="10" fill="#263253" />
<rect x="540" y="290" width="20" height="10" fill="#010929" />
<rect x="240" y="300" width="10" height="20" fill="#010929" />
<rect x="250" y="300" width="40" height="10" fill="#263253" />
<rect x="290" y="300" width="30" height="10" fill="#6069A1" />
<rect x="320" y="300" width="60" height="10" fill="#263253" />
<rect x="380" y="300" width="30" height="10" fill="#010929" />
<rect x="450" y="300" width="30" height="10" fill="#263253" />
<rect x="480" y="300" width="50" height="10" fill="#6069A1" />
<rect x="530" y="300" width="20" height="10" fill="#263253" />
<rect x="550" y="300" width="10" height="110" fill="#010929" />
<rect x="250" y="310" width="50" height="10" fill="#263253" />
<rect x="300" y="310" width="80" height="10" fill="#6069A1" />
<rect x="380" y="310" width="40" height="10" fill="#010929" />
<rect x="420" y="310" width="20" height="10" fill="#6069A1" />
<rect x="450" y="310" width="60" height="10" fill="#6069A1" />
<rect x="510" y="310" width="40" height="10" fill="#263253" />
<rect x="230" y="320" width="10" height="30" fill="#010929" />
<rect x="240" y="320" width="70" height="10" fill="#263253" />
<rect x="310" y="320" width="60" height="10" fill="#6069A1" />
<rect x="370" y="320" width="60" height="10" fill="#010929" />
<rect x="430" y="320" width="10" height="10" fill="#6069A1" />
<rect x="450" y="320" width="10" height="10" fill="#263253" />
<rect x="460" y="320" width="30" height="10" fill="#6069A1" />
<rect x="490" y="320" width="60" height="10" fill="#263253" />
<rect x="240" y="330" width="120" height="10" fill="#263253" />
<rect x="360" y="330" width="100" height="10" fill="#010929" />
<rect x="460" y="330" width="90" height="30" fill="#263253" />
<rect x="240" y="340" width="110" height="10" fill="#263253" />
<rect x="350" y="340" width="90" height="10" fill="#010929" />
<rect x="440" y="340" width="10" height="20" fill="#D9A686" />
<rect x="450" y="340" width="10" height="20" fill="#010929" />
<rect x="220" y="350" width="10" height="70" fill="#010929" />
<rect x="230" y="350" width="110" height="20" fill="#263253" />
<rect x="340" y="350" width="100" height="10" fill="#010929" />
<rect x="340" y="360" width="20" height="10" fill="#010929" />
<rect x="360" y="360" width="100" height="10" fill="#D9A686" />
<rect x="460" y="360" width="10" height="10" fill="#010929" />
<rect x="470" y="360" width="80" height="10" fill="#263253" />
<rect x="230" y="370" width="100" height="10" fill="#263253" />
<rect x="330" y="370" width="10" height="10" fill="#010929" />
<rect x="340" y="370" width="130" height="10" fill="#D9A686" />
<rect x="470" y="370" width="10" height="10" fill="#010929" />
<rect x="480" y="370" width="70" height="10" fill="#263253" />
<rect x="230" y="380" width="90" height="10" fill="#263253" />
<rect x="320" y="380" width="10" height="10" fill="#010929" />
<rect x="330" y="380" width="150" height="10" fill="#D9A686" />
<rect x="480" y="380" width="10" height="10" fill="#010929" />
<rect x="490" y="380" width="60" height="10" fill="#263253" />
<rect x="230" y="390" width="80" height="30" fill="#263253" />
<rect x="310" y="390" width="10" height="100" fill="#010929" />
<rect x="320" y="390" width="170" height="10" fill="#D9A686" />
<rect x="490" y="390" width="10" height="10" fill="#010929" />
<rect x="500" y="390" width="50" height="10" fill="#263253" />
<rect x="320" y="400" width="180" height="20" fill="#D9A686" />
<rect x="500" y="400" width="10" height="20" fill="#010929" />
<rect x="510" y="400" width="20" height="20" fill="#263253" />
<rect x="530" y="400" width="10" height="30" fill="#010929" />
<rect x="230" y="420" width="10" height="50" fill="#010929" />
<rect x="240" y="420" width="70" height="50" fill="#263253" />
<rect x="320" y="420" width="190" height="20" fill="#D9A686" />
<rect x="510" y="420" width="10" height="10" fill="#010929" />
<rect x="520" y="420" width="10" height="10" fill="#263253" />
<rect x="510" y="430" width="20" height="10" fill="#010929" />
<rect x="320" y="440" width="200" height="10" fill="#D9A686" />
<rect x="540" y="440" width="20" height="10" fill="#010929" />
<rect x="320" y="450" width="40" height="10" fill="#D9A686" />
<rect x="430" y="450" width="90" height="10" fill="#D9A686" />
<rect x="530" y="450" width="30" height="10" fill="#010929" />
<rect x="320" y="460" width="20" height="30" fill="#D9A686" />
<rect x="450" y="460" width="60" height="10" fill="#D9A686" />
<rect x="510" y="460" width="50" height="10" fill="#010929" />
<rect x="240" y="470" width="10" height="20" fill="#010929" />
<rect x="250" y="470" width="60" height="20" fill="#263253" />
<rect x="450" y="470" width="50" height="10" fill="#D9A686" />
<rect x="500" y="470" width="60" height="10" fill="#010929" />
<rect x="460" y="480" width="30" height="10" fill="#D9A686" />
<rect x="490" y="480" width="70" height="10" fill="#010929" />
<rect x="250" y="490" width="10" height="20" fill="#010929" />
<rect x="260" y="490" width="50" height="10" fill="#263253" />
<rect x="310" y="490" width="20" height="10" fill="#010929" />
<rect x="330" y="490" width="10" height="10" fill="#D9A686" />
<rect x="460" y="490" width="20" height="10" fill="#D9A686" />
<rect x="480" y="490" width="80" height="10" fill="#010929" />
<rect x="260" y="500" width="60" height="10" fill="#263253" />
<rect x="320" y="500" width="20" height="10" fill="#010929" />
<rect x="460" y="500" width="10" height="10" fill="#D9A686" />
<rect x="470" y="500" width="90" height="20" fill="#010929" />
<rect x="260" y="510" width="10" height="30" fill="#010929" />
<rect x="270" y="510" width="50" height="10" fill="#263253" />
<rect x="320" y="510" width="30" height="10" fill="#010929" />
<rect x="270" y="520" width="60" height="20" fill="#263253" />
<rect x="330" y="520" width="40" height="10" fill="#010929" />
<rect x="480" y="520" width="70" height="10" fill="#010929" />
<rect x="330" y="530" width="50" height="10" fill="#010929" />
<rect x="500" y="530" width="50" height="10" fill="#010929" />
<rect x="250" y="540" width="10" height="50" fill="#010929" />
<rect x="260" y="540" width="70" height="30" fill="#263253" />
<rect x="330" y="540" width="10" height="30" fill="#010929" />
<rect x="520" y="540" width="30" height="10" fill="#010929" />
<rect x="530" y="550" width="20" height="10" fill="#010929" />
<rect x="260" y="570" width="60" height="10" fill="#263253" />
<rect x="320" y="570" width="10" height="10" fill="#010929" />
<rect x="260" y="580" width="50" height="10" fill="#263253" />
<rect x="310" y="580" width="10" height="10" fill="#010929" />
<rect x="240" y="590" width="10" height="30" fill="#010929" />
<rect x="250" y="590" width="50" height="10" fill="#263253" />
<rect x="300" y="590" width="10" height="10" fill="#010929" />
<rect x="250" y="600" width="30" height="10" fill="#263253" />
<rect x="280" y="600" width="20" height="10" fill="#010929" />
<rect x="250" y="610" width="10" height="10" fill="#263253" />
<rect x="260" y="610" width="20" height="10" fill="#010929" />
<rect x="240" y="620" width="20" height="10" fill="#010929" />
</svg>
