<?xml version="1.0" encoding="UTF-8"?>
<svg version="1.1" width="1000" height="2000" viewBox="0 0 1000 2000" xmlns="http://www.w3.org/2000/svg" shape-rendering="crispEdges">
<rect x="620" y="40" width="20" height="10" fill="#7A1E2C" />
<rect x="640" y="40" width="30" height="10" fill="#4A0F2B" />
<rect x="670" y="40" width="20" height="10" fill="#7A1E2C" />
<rect x="310" y="50" width="20" height="10" fill="#4A0F2B" />
<rect x="330" y="50" width="20" height="10" fill="#7A1E2C" />
<rect x="350" y="50" width="10" height="10" fill="#4A0F2B" />
<rect x="580" y="50" width="40" height="10" fill="#7A1E2C" />
<rect x="620" y="50" width="70" height="10" fill="#A02D27" />
<rect x="690" y="50" width="10" height="10" fill="#7A1E2C" />
<rect x="300" y="60" width="10" height="10" fill="#4A0F2B" />
<rect x="310" y="60" width="50" height="10" fill="#A02D27" />
<rect x="360" y="60" width="10" height="10" fill="#4A0F2B" />
<rect x="550" y="60" width="30" height="10" fill="#7A1E2C" />
<rect x="580" y="60" width="60" height="10" fill="#A02D27" />
<rect x="640" y="60" width="40" height="10" fill="#7A1E2C" />
<rect x="680" y="60" width="20" height="10" fill="#A02D27" />
<rect x="700" y="60" width="10" height="10" fill="#7A1E2C" />
<rect x="290" y="70" width="10" height="10" fill="#7A1E2C" />
<rect x="300" y="70" width="70" height="10" fill="#A02D27" />
<rect x="370" y="70" width="10" height="10" fill="#4A0F2B" />
<rect x="540" y="70" width="10" height="10" fill="#7A1E2C" />
<rect x="550" y="70" width="50" height="10" fill="#A02D27" />
<rect x="600" y="70" width="10" height="10" fill="#7A1E2C" />
<rect x="610" y="70" width="10" height="10" fill="#767DA9" />
<rect x="620" y="70" width="50" height="10" fill="#E1E6FF" />
<rect x="670" y="70" width="10" height="10" fill="#767DA9" />
<rect x="680" y="70" width="10" height="10" fill="#7A1E2C" />
<rect x="690" y="70" width="10" height="10" fill="#A02D27" />
<rect x="700" y="70" width="10" height="10" fill="#4A0F2B" />
<rect x="280" y="80" width="10" height="10" fill="#7A1E2C" />
<rect x="290" y="80" width="80" height="10" fill="#A02D27" />
<rect x="370" y="80" width="10" height="10" fill="#7A1E2C" />
<rect x="380" y="80" width="10" height="40" fill="#4A0F2B" />
<rect x="520" y="80" width="20" height="10" fill="#7A1E2C" />
<rect x="540" y="80" width="30" height="10" fill="#A02D27" />
<rect x="570" y="80" width="20" height="10" fill="#7A1E2C" />
<rect x="590" y="80" width="10" height="10" fill="#767DA9" />
<rect x="600" y="80" width="70" height="10" fill="#E1E6FF" />
<rect x="670" y="80" width="10" height="10" fill="#7A1E2C" />
<rect x="680" y="80" width="20" height="10" fill="#4A0F2B" />
<rect x="270" y="90" width="10" height="10" fill="#7A1E2C" />
<rect x="280" y="90" width="100" height="10" fill="#A02D27" />
<rect x="500" y="90" width="20" height="10" fill="#7A1E2C" />
<rect x="520" y="90" width="30" height="10" fill="#A02D27" />
<rect x="550" y="90" width="10" height="10" fill="#7A1E2C" />
<rect x="560" y="90" width="10" height="10" fill="#767DA9" />
<rect x="570" y="90" width="40" height="10" fill="#E1E6FF" />
<rect x="610" y="90" width="20" height="10" fill="#767DA9" />
<rect x="630" y="90" width="30" height="10" fill="#E1E6FF" />
<rect x="660" y="90" width="20" height="10" fill="#3E4463" />
<rect x="260" y="100" width="10" height="20" fill="#7A1E2C" />
<rect x="270" y="100" width="90" height="10" fill="#A02D27" />
<rect x="360" y="100" width="10" height="10" fill="#7A1E2C" />
<rect x="370" y="100" width="10" height="30" fill="#A02D27" />
<rect x="490" y="100" width="10" height="10" fill="#4A0F2B" />
<rect x="500" y="100" width="30" height="10" fill="#A02D27" />
<rect x="530" y="100" width="10" height="10" fill="#7A1E2C" />
<rect x="540" y="100" width="10" height="10" fill="#767DA9" />
<rect x="550" y="100" width="40" height="10" fill="#E1E6FF" />
<rect x="590" y="100" width="20" height="10" fill="#767DA9" />
<rect x="610" y="100" width="20" height="10" fill="#E1E6FF" />
<rect x="630" y="100" width="20" height="10" fill="#767DA9" />
<rect x="650" y="100" width="10" height="10" fill="#3E4463" />
<rect x="270" y="110" width="80" height="10" fill="#A02D27" />
<rect x="350" y="110" width="10" height="10" fill="#4A0F2B" />
<rect x="360" y="110" width="10" height="10" fill="#3E4463" />
<rect x="480" y="110" width="10" height="10" fill="#7A1E2C" />
<rect x="490" y="110" width="20" height="10" fill="#A02D27" />
<rect x="510" y="110" width="10" height="10" fill="#7A1E2C" />
<rect x="520" y="110" width="10" height="10" fill="#767DA9" />
<rect x="530" y="110" width="50" height="10" fill="#E1E6FF" />
<rect x="580" y="110" width="20" height="10" fill="#767DA9" />
<rect x="600" y="110" width="20" height="10" fill="#E1E6FF" />
<rect x="620" y="110" width="10" height="10" fill="#767DA9" />
<rect x="630" y="110" width="20" height="10" fill="#3E4463" />
<rect x="250" y="120" width="10" height="20" fill="#7A1E2C" />
<rect x="260" y="120" width="70" height="20" fill="#A02D27" />
<rect x="330" y="120" width="10" height="10" fill="#7A1E2C" />
<rect x="340" y="120" width="10" height="10" fill="#4A0F2B" />
<rect x="350" y="120" width="10" height="10" fill="#3E4463" />
<rect x="360" y="120" width="10" height="20" fill="#767DA9" />
<rect x="380" y="120" width="10" height="10" fill="#7A1E2C" />
<rect x="390" y="120" width="10" height="60" fill="#4A0F2B" />
<rect x="470" y="120" width="10" height="10" fill="#4A0F2B" />
<rect x="480" y="120" width="20" height="10" fill="#A02D27" />
<rect x="500" y="120" width="10" height="10" fill="#7A1E2C" />
<rect x="510" y="120" width="10" height="10" fill="#767DA9" />
<rect x="520" y="120" width="90" height="10" fill="#E1E6FF" />
<rect x="610" y="120" width="20" height="10" fill="#3E4463" />
<rect x="330" y="130" width="10" height="10" fill="#4A0F2B" />
<rect x="340" y="130" width="20" height="10" fill="#3E4463" />
<rect x="370" y="130" width="10" height="10" fill="#7A1E2C" />
<rect x="380" y="130" width="10" height="20" fill="#A02D27" />
<rect x="460" y="130" width="10" height="10" fill="#4A0F2B" />
<rect x="470" y="130" width="20" height="10" fill="#A02D27" />
<rect x="490" y="130" width="10" height="10" fill="#7A1E2C" />
<rect x="500" y="130" width="10" height="10" fill="#767DA9" />
<rect x="510" y="130" width="10" height="10" fill="#E1E6FF" />
<rect x="520" y="130" width="30" height="10" fill="#767DA9" />
<rect x="550" y="130" width="30" height="10" fill="#E1E6FF" />
<rect x="580" y="130" width="20" height="10" fill="#767DA9" />
<rect x="600" y="130" width="10" height="10" fill="#3E4463" />
<rect x="240" y="140" width="10" height="40" fill="#4A0F2B" />
<rect x="250" y="140" width="70" height="10" fill="#A02D27" />
<rect x="320" y="140" width="10" height="10" fill="#4A0F2B" />
<rect x="330" y="140" width="20" height="10" fill="#3E4463" />
<rect x="350" y="140" width="20" height="10" fill="#767DA9" />
<rect x="370" y="140" width="10" height="40" fill="#4A0F2B" />
<rect x="450" y="140" width="10" height="10" fill="#4A0F2B" />
<rect x="460" y="140" width="10" height="10" fill="#7A1E2C" />
<rect x="470" y="140" width="10" height="10" fill="#A02D27" />
<rect x="480" y="140" width="10" height="10" fill="#7A1E2C" />
<rect x="490" y="140" width="20" height="10" fill="#767DA9" />
<rect x="510" y="140" width="10" height="10" fill="#3E4463" />
<rect x="520" y="140" width="10" height="10" fill="#767DA9" />
<rect x="530" y="140" width="30" height="10" fill="#E1E6FF" />
<rect x="560" y="140" width="20" height="10" fill="#767DA9" />
<rect x="580" y="140" width="10" height="10" fill="#4A0F2B" />
<rect x="590" y="140" width="10" height="10" fill="#3E4463" />
<rect x="250" y="150" width="60" height="20" fill="#A02D27" />
<rect x="310" y="150" width="10" height="20" fill="#4A0F2B" />
<rect x="320" y="150" width="20" height="20" fill="#3E4463" />
<rect x="340" y="150" width="30" height="20" fill="#767DA9" />
<rect x="380" y="150" width="10" height="30" fill="#7A1E2C" />
<rect x="440" y="150" width="10" height="20" fill="#4A0F2B" />
<rect x="450" y="150" width="10" height="10" fill="#7A1E2C" />
<rect x="460" y="150" width="10" height="10" fill="#A02D27" />
<rect x="470" y="150" width="10" height="10" fill="#7A1E2C" />
<rect x="480" y="150" width="30" height="10" fill="#767DA9" />
<rect x="510" y="150" width="20" height="10" fill="#E1E6FF" />
<rect x="530" y="150" width="40" height="10" fill="#767DA9" />
<rect x="570" y="150" width="10" height="10" fill="#4A0F2B" />
<rect x="450" y="160" width="20" height="10" fill="#A02D27" />
<rect x="470" y="160" width="80" height="10" fill="#767DA9" />
<rect x="550" y="160" width="10" height="10" fill="#3E4463" />
<rect x="560" y="160" width="10" height="10" fill="#4A0F2B" />
<rect x="250" y="170" width="50" height="10" fill="#A02D27" />
<rect x="300" y="170" width="10" height="10" fill="#4A0F2B" />
<rect x="320" y="170" width="10" height="30" fill="#4A0F2B" />
<rect x="330" y="170" width="10" height="10" fill="#3E4463" />
<rect x="340" y="170" width="20" height="10" fill="#767DA9" />
<rect x="360" y="170" width="10" height="20" fill="#3E4463" />
<rect x="430" y="170" width="10" height="20" fill="#4A0F2B" />
<rect x="440" y="170" width="10" height="10" fill="#7A1E2C" />
<rect x="450" y="170" width="10" height="10" fill="#A02D27" />
<rect x="460" y="170" width="10" height="10" fill="#4A0F2B" />
<rect x="470" y="170" width="10" height="10" fill="#3E4463" />
<rect x="480" y="170" width="60" height="10" fill="#767DA9" />
<rect x="540" y="170" width="10" height="10" fill="#3E4463" />
<rect x="240" y="180" width="10" height="20" fill="#7A1E2C" />
<rect x="250" y="180" width="40" height="20" fill="#A02D27" />
<rect x="290" y="180" width="10" height="30" fill="#4A0F2B" />
<rect x="330" y="180" width="20" height="10" fill="#3E4463" />
<rect x="350" y="180" width="10" height="10" fill="#767DA9" />
<rect x="370" y="180" width="10" height="20" fill="#7A1E2C" />
<rect x="380" y="180" width="10" height="20" fill="#4A0F2B" />
<rect x="440" y="180" width="10" height="20" fill="#A02D27" />
<rect x="450" y="180" width="10" height="10" fill="#7A1E2C" />
<rect x="460" y="180" width="10" height="10" fill="#3E4463" />
<rect x="470" y="180" width="20" height="10" fill="#767DA9" />
<rect x="490" y="180" width="30" height="10" fill="#3E4463" />
<rect x="520" y="180" width="10" height="10" fill="#4A0F2B" />
<rect x="530" y="180" width="10" height="10" fill="#3E4463" />
<rect x="330" y="190" width="30" height="20" fill="#3E4463" />
<rect x="360" y="190" width="10" height="10" fill="#4A0F2B" />
<rect x="390" y="190" width="30" height="10" fill="#000828" />
<rect x="420" y="190" width="10" height="10" fill="#4A0F2B" />
<rect x="430" y="190" width="10" height="10" fill="#7A1E2C" />
<rect x="450" y="190" width="10" height="10" fill="#4A0F2B" />
<rect x="460" y="190" width="10" height="10" fill="#767DA9" />
<rect x="470" y="190" width="30" height="10" fill="#3E4463" />
<rect x="500" y="190" width="20" height="10" fill="#4A0F2B" />
<rect x="240" y="200" width="10" height="20" fill="#4A0F2B" />
<rect x="250" y="200" width="30" height="10" fill="#A02D27" />
<rect x="280" y="200" width="10" height="10" fill="#7A1E2C" />
<rect x="300" y="200" width="10" height="20" fill="#7A1E2C" />
<rect x="310" y="200" width="20" height="10" fill="#4A0F2B" />
<rect x="360" y="200" width="20" height="10" fill="#4A0F2B" />
<rect x="380" y="200" width="10" height="10" fill="#7A1E2C" />
<rect x="390" y="200" width="40" height="10" fill="#4A0F2B" />
<rect x="430" y="200" width="20" height="10" fill="#7A1E2C" />
<rect x="450" y="200" width="40" height="10" fill="#3E4463" />
<rect x="490" y="200" width="10" height="10" fill="#4A0F2B" />
<rect x="250" y="210" width="10" height="10" fill="#7A1E2C" />
<rect x="260" y="210" width="20" height="20" fill="#A02D27" />
<rect x="280" y="210" width="10" height="20" fill="#4A0F2B" />
<rect x="310" y="210" width="10" height="10" fill="#A02D27" />
<rect x="320" y="210" width="10" height="10" fill="#7A1E2C" />
<rect x="330" y="210" width="20" height="10" fill="#4A0F2B" />
<rect x="350" y="210" width="10" height="10" fill="#3E4463" />
<rect x="360" y="210" width="10" height="10" fill="#4A0F2B" />
<rect x="370" y="210" width="20" height="10" fill="#A02D27" />
<rect x="390" y="210" width="10" height="10" fill="#4A0F2B" />
<rect x="400" y="210" width="20" height="10" fill="#A02D27" />
<rect x="420" y="210" width="10" height="10" fill="#4A0F2B" />
<rect x="430" y="210" width="10" height="10" fill="#7A1E2C" />
<rect x="440" y="210" width="10" height="10" fill="#4A0F2B" />
<rect x="450" y="210" width="10" height="10" fill="#3E4463" />
<rect x="460" y="210" width="30" height="10" fill="#4A0F2B" />
<rect x="250" y="220" width="10" height="10" fill="#4A0F2B" />
<rect x="300" y="220" width="10" height="10" fill="#4A0F2B" />
<rect x="310" y="220" width="20" height="10" fill="#A02D27" />
<rect x="330" y="220" width="10" height="20" fill="#4A0F2B" />
<rect x="340" y="220" width="10" height="20" fill="#A02D27" />
<rect x="350" y="220" width="10" height="20" fill="#4A0F2B" />
<rect x="360" y="220" width="20" height="10" fill="#7A1E2C" />
<rect x="380" y="220" width="10" height="10" fill="#4A0F2B" />
<rect x="400" y="220" width="10" height="10" fill="#4A0F2B" />
<rect x="410" y="220" width="10" height="10" fill="#A02D27" />
<rect x="420" y="220" width="30" height="10" fill="#4A0F2B" />
<rect x="450" y="220" width="10" height="10" fill="#7A1E2C" />
<rect x="460" y="220" width="10" height="10" fill="#A02D27" />
<rect x="470" y="220" width="10" height="10" fill="#7A1E2C" />
<rect x="480" y="220" width="20" height="10" fill="#4A0F2B" />
<rect x="260" y="230" width="20" height="10" fill="#4A0F2B" />
<rect x="310" y="230" width="10" height="10" fill="#4A0F2B" />
<rect x="320" y="230" width="10" height="10" fill="#7A1E2C" />
<rect x="410" y="230" width="10" height="10" fill="#7A1E2C" />
<rect x="420" y="230" width="10" height="10" fill="#4A0F2B" />
<rect x="430" y="230" width="10" height="20" fill="#7A1E2C" />
<rect x="440" y="230" width="10" height="20" fill="#4A0F2B" />
<rect x="450" y="230" width="20" height="10" fill="#A02D27" />
<rect x="470" y="230" width="10" height="10" fill="#4A0F2B" />
<rect x="480" y="230" width="10" height="10" fill="#A02D27" />
<rect x="490" y="230" width="10" height="10" fill="#7A1E2C" />
<rect x="450" y="240" width="10" height="10" fill="#7A1E2C" />
<rect x="460" y="240" width="10" height="10" fill="#4A0F2B" />
<rect x="470" y="240" width="10" height="10" fill="#A02D27" />
<rect x="480" y="240" width="10" height="10" fill="#7A1E2C" />
</svg>
