<?xml version="1.0" encoding="UTF-8"?>
<svg version="1.1" width="1000" height="2000" viewBox="0 0 1000 2000" xmlns="http://www.w3.org/2000/svg" shape-rendering="crispEdges">
<rect x="260" y="60" width="20" height="10" fill="#00082A" />
<rect x="530" y="60" width="20" height="10" fill="#342E3F" />
<rect x="260" y="70" width="10" height="10" fill="#00082A" />
<rect x="270" y="70" width="10" height="30" fill="#4A5462" />
<rect x="280" y="70" width="10" height="20" fill="#342E3F" />
<rect x="520" y="70" width="10" height="20" fill="#342E3F" />
<rect x="530" y="70" width="10" height="60" fill="#4A5462" />
<rect x="540" y="70" width="10" height="40" fill="#342E3F" />
<rect x="260" y="80" width="10" height="20" fill="#342E3F" />
<rect x="280" y="90" width="10" height="30" fill="#00082A" />
<rect x="520" y="90" width="10" height="10" fill="#00082A" />
<rect x="260" y="100" width="10" height="20" fill="#00082A" />
<rect x="270" y="100" width="10" height="20" fill="#342E3F" />
<rect x="520" y="100" width="10" height="10" fill="#342E3F" />
<rect x="510" y="110" width="10" height="20" fill="#00082A" />
<rect x="520" y="110" width="10" height="30" fill="#A02D27" />
<rect x="540" y="110" width="10" height="40" fill="#00082A" />
<rect x="260" y="120" width="10" height="50" fill="#342E3F" />
<rect x="270" y="120" width="10" height="70" fill="#4A5462" />
<rect x="280" y="120" width="10" height="10" fill="#A02D27" />
<rect x="290" y="120" width="10" height="20" fill="#00082A" />
<rect x="280" y="130" width="10" height="10" fill="#D96B50" />
<rect x="500" y="130" width="10" height="10" fill="#00082A" />
<rect x="510" y="130" width="10" height="10" fill="#FFE7DD" />
<rect x="530" y="130" width="10" height="20" fill="#342E3F" />
<rect x="280" y="140" width="10" height="10" fill="#A02D27" />
<rect x="290" y="140" width="10" height="10" fill="#FFE7DD" />
<rect x="300" y="140" width="10" height="10" fill="#00082A" />
<rect x="500" y="140" width="10" height="10" fill="#4A0F2B" />
<rect x="510" y="140" width="20" height="10" fill="#A02D27" />
<rect x="280" y="150" width="10" height="10" fill="#FFE7DD" />
<rect x="290" y="150" width="10" height="10" fill="#A02D27" />
<rect x="300" y="150" width="10" height="10" fill="#D96B50" />
<rect x="310" y="150" width="10" height="10" fill="#00082A" />
<rect x="490" y="150" width="10" height="10" fill="#4A0F2B" />
<rect x="500" y="150" width="10" height="10" fill="#A02D27" />
<rect x="510" y="150" width="10" height="10" fill="#D96B50" />
<rect x="520" y="150" width="10" height="10" fill="#A02D27" />
<rect x="530" y="150" width="10" height="30" fill="#4A5462" />
<rect x="540" y="150" width="10" height="30" fill="#342E3F" />
<rect x="280" y="160" width="10" height="20" fill="#7A1E2C" />
<rect x="290" y="160" width="10" height="10" fill="#D96B50" />
<rect x="300" y="160" width="10" height="10" fill="#A02D27" />
<rect x="310" y="160" width="10" height="10" fill="#D96B50" />
<rect x="320" y="160" width="10" height="10" fill="#4A0F2B" />
<rect x="480" y="160" width="10" height="10" fill="#4A0F2B" />
<rect x="490" y="160" width="10" height="10" fill="#A02D27" />
<rect x="500" y="160" width="10" height="10" fill="#D96B50" />
<rect x="510" y="160" width="10" height="10" fill="#A02D27" />
<rect x="520" y="160" width="10" height="10" fill="#7A1E2C" />
<rect x="260" y="170" width="10" height="10" fill="#00082A" />
<rect x="290" y="170" width="10" height="10" fill="#A02D27" />
<rect x="300" y="170" width="10" height="10" fill="#FFE7DD" />
<rect x="310" y="170" width="20" height="10" fill="#A02D27" />
<rect x="330" y="170" width="10" height="20" fill="#00082A" />
<rect x="470" y="170" width="10" height="20" fill="#4A0F2B" />
<rect x="480" y="170" width="10" height="10" fill="#7A1E2C" />
<rect x="490" y="170" width="10" height="10" fill="#FFE7DD" />
<rect x="500" y="170" width="20" height="10" fill="#A02D27" />
<rect x="520" y="170" width="10" height="10" fill="#342E3F" />
<rect x="260" y="180" width="10" height="10" fill="#342E3F" />
<rect x="280" y="180" width="10" height="10" fill="#342E3F" />
<rect x="290" y="180" width="20" height="10" fill="#A02D27" />
<rect x="310" y="180" width="10" height="10" fill="#D96B50" />
<rect x="320" y="180" width="10" height="10" fill="#A02D27" />
<rect x="480" y="180" width="10" height="10" fill="#D96B50" />
<rect x="490" y="180" width="10" height="10" fill="#A02D27" />
<rect x="500" y="180" width="10" height="10" fill="#D96B50" />
<rect x="510" y="180" width="10" height="10" fill="#A02D27" />
<rect x="520" y="180" width="20" height="10" fill="#4A5462" />
<rect x="540" y="180" width="10" height="20" fill="#00082A" />
<rect x="260" y="190" width="10" height="20" fill="#00082A" />
<rect x="270" y="190" width="10" height="10" fill="#342E3F" />
<rect x="280" y="190" width="10" height="10" fill="#4A5462" />
<rect x="290" y="190" width="10" height="10" fill="#A02D27" />
<rect x="300" y="190" width="10" height="10" fill="#D96B50" />
<rect x="310" y="190" width="20" height="10" fill="#A02D27" />
<rect x="330" y="190" width="10" height="10" fill="#7A1E2C" />
<rect x="340" y="190" width="10" height="10" fill="#00082A" />
<rect x="460" y="190" width="10" height="20" fill="#4A0F2B" />
<rect x="470" y="190" width="10" height="10" fill="#7A1E2C" />
<rect x="480" y="190" width="10" height="10" fill="#A02D27" />
<rect x="490" y="190" width="10" height="10" fill="#FFE7DD" />
<rect x="500" y="190" width="20" height="10" fill="#A02D27" />
<rect x="520" y="190" width="10" height="20" fill="#4A5462" />
<rect x="530" y="190" width="10" height="10" fill="#342E3F" />
<rect x="270" y="200" width="20" height="10" fill="#342E3F" />
<rect x="290" y="200" width="30" height="10" fill="#A02D27" />
<rect x="470" y="200" width="10" height="10" fill="#A02D27" />
<rect x="480" y="200" width="10" height="10" fill="#D96B50" />
<rect x="490" y="200" width="30" height="10" fill="#A02D27" />
<rect x="530" y="200" width="10" height="20" fill="#00082A" />
<rect x="270" y="210" width="10" height="40" fill="#00082A" />
<rect x="280" y="210" width="10" height="10" fill="#342E3F" />
<rect x="290" y="210" width="10" height="10" fill="#A02D27" />
<rect x="300" y="210" width="10" height="10" fill="#7A1E2C" />
<rect x="450" y="210" width="10" height="10" fill="#4A0F2B" />
<rect x="460" y="210" width="10" height="20" fill="#7A1E2C" />
<rect x="470" y="210" width="20" height="10" fill="#A02D27" />
<rect x="490" y="210" width="10" height="10" fill="#7A1E2C" />
<rect x="500" y="210" width="20" height="10" fill="#A02D27" />
<rect x="520" y="210" width="10" height="20" fill="#342E3F" />
<rect x="280" y="220" width="20" height="10" fill="#342E3F" />
<rect x="450" y="220" width="10" height="10" fill="#00082A" />
<rect x="470" y="220" width="40" height="10" fill="#A02D27" />
<rect x="510" y="220" width="10" height="10" fill="#7A1E2C" />
<rect x="530" y="220" width="10" height="10" fill="#4A0F2B" />
<rect x="280" y="230" width="10" height="10" fill="#342E3F" />
<rect x="470" y="230" width="10" height="10" fill="#7A1E2C" />
<rect x="480" y="230" width="30" height="10" fill="#A02D27" />
<rect x="510" y="230" width="20" height="20" fill="#342E3F" />
<rect x="530" y="230" width="10" height="20" fill="#00082A" />
<rect x="470" y="240" width="20" height="10" fill="#00082A" />
<rect x="490" y="240" width="20" height="10" fill="#A02D27" />
<rect x="490" y="250" width="10" height="10" fill="#00082A" />
<rect x="500" y="250" width="10" height="10" fill="#7A1E2C" />
<rect x="510" y="250" width="10" height="10" fill="#342E3F" />
<rect x="520" y="250" width="10" height="10" fill="#00082A" />
<rect x="500" y="260" width="10" height="10" fill="#4A0F2B" />
<rect x="510" y="260" width="10" height="10" fill="#00082A" />
</svg>
